<?xml version="1.0" encoding="UTF-8"?>
<svg version="1.1" xmlns="http://www.w3.org/2000/svg" width="500" height="500">
<path d="M0 0 C0.98129883 0.45197754 1.96259766 0.90395508 2.97363281 1.36962891 C4.00584961 1.8547998 5.03806641 2.3399707 6.1015625 2.83984375 C7.1750293 3.33790527 8.24849609 3.8359668 9.35449219 4.34912109 C15.90033818 7.40208167 22.38771084 10.55219397 28.81616211 13.84448242 C35.20771194 17.0908115 41.76269892 19.9676317 48.34277344 22.80908203 C49.15907227 23.16728027 49.97537109 23.52547852 50.81640625 23.89453125 C51.54722412 24.21019043 52.27804199 24.52584961 53.03100586 24.85107422 C54.7265625 25.77734375 54.7265625 25.77734375 55.7265625 27.77734375 C56.89846121 35.1503743 57.83180922 43.64219216 53.5546875 50.01171875 C50.73470004 52.52010538 47.85154575 54.66497128 44.7265625 56.77734375 C43.35295536 57.9423017 41.99638941 59.12789135 40.6640625 60.33984375 C40.04144531 60.87867188 39.41882813 61.4175 38.77734375 61.97265625 C37.19517771 63.36496236 35.63400155 64.78114421 34.08203125 66.20703125 C33.18097656 67.03460938 32.27992188 67.8621875 31.3515625 68.71484375 C30.51882813 69.48699219 29.68609375 70.25914062 28.828125 71.0546875 C26.7265625 72.77734375 26.7265625 72.77734375 24.7265625 72.77734375 C24.7265625 73.43734375 24.7265625 74.09734375 24.7265625 74.77734375 C22.15204055 77.3518657 20.56292208 78.68492833 16.8984375 79.08984375 C13.17421142 78.72292492 11.24590952 77.65329185 8.1015625 75.65234375 C6.52761719 74.71068359 6.52761719 74.71068359 4.921875 73.75 C2.87137276 72.48410314 0.84253865 71.1820052 -1.15625 69.8359375 C-7.07089685 66.23396592 -10.78792884 65.33332167 -17.5859375 66.96484375 C-20.4528125 67.89296875 -23.3196875 68.82109375 -26.2734375 69.77734375 C-33.8634375 72.08734375 -41.4534375 74.39734375 -49.2734375 76.77734375 C-49.6034375 98.22734375 -49.9334375 119.67734375 -50.2734375 141.77734375 C-48.6234375 142.43734375 -46.9734375 143.09734375 -45.2734375 143.77734375 C-43.54889456 144.80093688 -41.85065085 145.86965894 -40.17578125 146.97265625 C-39.21462402 147.60308838 -38.2534668 148.23352051 -37.26318359 148.88305664 C-36.25594238 149.54942139 -35.24870117 150.21578613 -34.2109375 150.90234375 C-33.18049316 151.57579834 -32.15004883 152.24925293 -31.08837891 152.94311523 C-26.76946937 155.77226354 -22.46376454 158.60540065 -18.26953125 161.6171875 C-17.23957031 162.35066406 -16.20960938 163.08414063 -15.1484375 163.83984375 C-14.30023438 164.47019531 -13.45203125 165.10054687 -12.578125 165.75 C-10.30246407 167.06919542 -10.30246407 167.06919542 -7.94042969 166.04516602 C-5.18924641 164.73732139 -2.80296292 163.24945291 -0.296875 161.51953125 C0.6209375 160.89433594 1.53875 160.26914063 2.484375 159.625 C4.40478474 158.30373717 6.32404641 156.98080419 8.2421875 155.65625 C9.61503906 154.72232422 9.61503906 154.72232422 11.015625 153.76953125 C11.84787598 153.1957373 12.68012695 152.62194336 13.53759766 152.03076172 C15.7265625 150.77734375 15.7265625 150.77734375 18.7265625 150.77734375 C18.7265625 150.11734375 18.7265625 149.45734375 18.7265625 148.77734375 C19.34144531 148.43960938 19.95632813 148.101875 20.58984375 147.75390625 C21.39808594 147.30789062 22.20632813 146.861875 23.0390625 146.40234375 C23.83957031 145.96148437 24.64007813 145.520625 25.46484375 145.06640625 C27.26184193 144.0422104 29.00556958 142.92467237 30.7265625 141.77734375 C31.12446374 138.59388056 31.12446374 138.59388056 31.1015625 134.96484375 C31.48358871 128.13004765 31.48358871 128.13004765 33.6640625 124.96484375 C35.18 123.88203125 35.18 123.88203125 36.7265625 122.77734375 C38.36054299 121.28713143 39.984606 119.78601093 41.6015625 118.27734375 C52.22760591 108.77734375 52.22760591 108.77734375 55.7265625 108.77734375 C56.08335886 115.16194128 56.32737377 121.54395538 56.49560547 127.9362793 C56.5657543 130.10685216 56.66111572 132.27676924 56.78271484 134.44506836 C57.7405365 151.97159496 57.7405365 151.97159496 54.41500854 156.60452271 C51.19407353 159.55178153 47.57691813 161.30776434 43.5655365 162.94459534 C40.44586615 164.35728553 37.81693971 166.34574847 35.0390625 168.33984375 C30.08718628 171.77734375 30.08718628 171.77734375 26.7265625 171.77734375 C26.7265625 172.43734375 26.7265625 173.09734375 26.7265625 173.77734375 C25.03125 174.96875 25.03125 174.96875 22.6015625 176.33984375 C18.24303174 178.87100184 13.96525562 181.48992843 9.7265625 184.21484375 C9.13093506 184.59503662 8.53530762 184.97522949 7.92163086 185.36694336 C3.42504866 188.26072249 -0.87181747 191.37053437 -5.08984375 194.66015625 C-7.2734375 195.77734375 -7.2734375 195.77734375 -9.609375 195.74609375 C-13.23508411 194.42765407 -16.20609596 192.35680931 -19.3359375 190.15234375 C-25.13694104 186.1553152 -30.99421917 182.54039359 -37.17578125 179.15234375 C-37.86800781 178.69859375 -38.56023437 178.24484375 -39.2734375 177.77734375 C-39.2734375 177.11734375 -39.2734375 176.45734375 -39.2734375 175.77734375 C-39.81693848 175.68364502 -40.36043945 175.58994629 -40.92041016 175.4934082 C-43.9642198 174.56712747 -46.25064453 173.04922973 -48.921875 171.3203125 C-50.00984375 170.61970703 -51.0978125 169.91910156 -52.21875 169.19726562 C-53.36203703 168.4532139 -54.50526574 167.70907256 -55.6484375 166.96484375 C-56.78353253 166.23192351 -57.91894627 165.49949661 -59.0546875 164.76757812 C-62.13307753 162.77899638 -65.20734168 160.78482694 -68.2734375 158.77734375 C-69.30946106 158.27102921 -70.34548462 157.76471466 -71.41290283 157.24305725 C-74.48754878 154.59278487 -74.69573456 154.36941458 -74.9949646 150.61383057 C-75.01234643 148.88223709 -74.99642563 147.1501206 -74.95458984 145.41894531 C-74.95590408 143.99892464 -74.95590408 143.99892464 -74.95724487 142.55021667 C-74.95306557 139.42196048 -74.90639619 136.29585016 -74.859375 133.16796875 C-74.84818411 130.99893363 -74.83964342 128.82988334 -74.83364868 126.66082764 C-74.8107422 120.95251577 -74.75180211 115.24512027 -74.6854248 109.53717041 C-74.62404219 103.71240639 -74.59664219 97.88749425 -74.56640625 92.0625 C-74.5020616 80.63371201 -74.39965917 69.20560409 -74.2734375 57.77734375 C-73.05889893 57.44468506 -71.84436035 57.11202637 -70.59301758 56.76928711 C-68.97213973 56.3228564 -67.35129171 55.87631743 -65.73046875 55.4296875 C-64.93322388 55.21163452 -64.135979 54.99358154 -63.3145752 54.7689209 C-58.47351907 53.4322206 -53.71096346 51.97099139 -48.9609375 50.33984375 C-40.25614995 47.36610011 -31.41677162 44.88347464 -22.5546875 42.42431641 C-20.53415111 41.85128329 -18.52746254 41.22990785 -16.5234375 40.6015625 C-7.25882529 38.2520034 -1.78141469 42.44192762 6.11523438 46.95507812 C7.01951172 47.45458984 7.92378906 47.95410156 8.85546875 48.46875 C9.67088135 48.93482666 10.48629395 49.40090332 11.32641602 49.88110352 C14.26565286 50.97864583 15.7692647 50.73380922 18.7265625 49.77734375 C21.24100819 47.95680378 21.24100819 47.95680378 23.5390625 45.71484375 C24.72435547 44.61462891 24.72435547 44.61462891 25.93359375 43.4921875 C26.82111328 42.64333984 26.82111328 42.64333984 27.7265625 41.77734375 C22.44643262 37.4463005 16.00994576 34.81690661 9.90332031 31.85009766 C7.80522758 30.81611162 5.73018416 29.74552159 3.65625 28.6640625 C2.36756448 28.01357554 1.0785168 27.36380543 -0.2109375 26.71484375 C-1.35433594 26.12574219 -2.49773437 25.53664063 -3.67578125 24.9296875 C-11.69989273 22.35953236 -19.47143106 25.53795982 -27.2109375 28.02734375 C-29.25071786 28.66722992 -31.29109046 29.30523102 -33.33203125 29.94140625 C-34.3360498 30.2549707 -35.34006836 30.56853516 -36.37451172 30.89160156 C-40.48498836 32.14752284 -44.62403123 33.28318284 -48.7734375 34.40234375 C-54.21969068 35.87816095 -59.56111698 37.50688086 -64.8984375 39.33984375 C-70.95486151 41.4176429 -77.03199359 43.06366757 -83.26025391 44.52172852 C-86.54320285 45.08627275 -86.54320285 45.08627275 -89.2734375 46.77734375 C-89.38131288 48.28242574 -89.42026182 49.79250691 -89.43165588 51.30140686 C-89.44633911 52.76753166 -89.44633911 52.76753166 -89.46131897 54.26327515 C-89.46707443 55.34436554 -89.4728299 56.42545593 -89.47875977 57.53930664 C-89.49360916 59.23664696 -89.49360916 59.23664696 -89.50875854 60.96827698 C-89.54048344 64.72882964 -89.56517425 68.48939496 -89.58984375 72.25 C-89.6104038 74.8493229 -89.6314 77.44864239 -89.65281677 80.04795837 C-89.70247369 86.20319789 -89.74771346 92.35845553 -89.79083914 98.51374382 C-89.84016947 105.51971084 -89.89510314 112.52563036 -89.95051873 119.53155148 C-90.06441442 133.94677098 -90.17123686 148.36203683 -90.2734375 162.77734375 C-89.1272998 163.21735718 -89.1272998 163.21735718 -87.95800781 163.66625977 C-84.70250077 165.01364177 -81.97110005 166.78349613 -79.0234375 168.71484375 C-77.76693221 169.53386204 -76.51042157 170.35287211 -75.25390625 171.171875 C-74.27236572 171.81503662 -74.27236572 171.81503662 -73.27099609 172.47119141 C-70.65023712 174.1848385 -68.01868297 175.88148802 -65.38720703 177.57861328 C-50.48743904 187.19376944 -35.58423632 196.8137697 -20.87646484 206.72094727 C-19.34769185 207.74808452 -17.81086641 208.76320858 -16.2734375 209.77734375 C-15.44070312 210.380625 -14.60796875 210.98390625 -13.75 211.60546875 C-10.38018079 213.20002043 -8.82015437 212.87682598 -5.2734375 211.77734375 C-2.82315404 210.34801173 -0.57529146 208.91141712 1.7265625 207.27734375 C3.05393942 206.36349579 4.38208259 205.45075993 5.7109375 204.5390625 C6.37931641 204.07677246 7.04769531 203.61448242 7.73632812 203.13818359 C10.77656453 201.05939584 13.87215566 199.07101349 16.9765625 197.08984375 C17.55728516 196.71794922 18.13800781 196.34605469 18.73632812 195.96289062 C23.11412846 193.16169335 27.50090733 190.3745665 31.88671875 187.5859375 C42.48109884 180.83876008 53.03709486 174.04210334 63.40234375 166.9453125 C64.21058594 166.39488281 65.01882813 165.84445312 65.8515625 165.27734375 C66.55539062 164.79265625 67.25921875 164.30796875 67.984375 163.80859375 C69.7265625 162.77734375 69.7265625 162.77734375 71.7265625 162.77734375 C71.67992966 161.48640556 71.67992966 161.48640556 71.63235474 160.16938782 C71.35031027 152.00667938 71.13795062 143.84563498 71.00119209 135.67915058 C70.9285073 131.48147467 70.83019523 127.28786442 70.67041016 123.0925293 C69.58107353 93.72826591 69.58107353 93.72826591 74.65917969 86.81787109 C77.41089371 83.94688014 80.39232989 81.82629485 83.86224365 79.90609741 C86.59974273 78.24867593 88.83681481 76.11329358 91.16189575 73.92793274 C92.7265625 72.77734375 92.7265625 72.77734375 95.7265625 72.77734375 C95.98167621 85.93786621 96.17700495 99.09779862 96.29649639 112.26029205 C96.35385432 118.37265992 96.43161787 124.48333376 96.55639648 130.59472656 C96.67611253 136.49524001 96.74172775 142.39412677 96.77021217 148.29576111 C96.79050396 150.54460767 96.83013302 152.79336723 96.88959312 155.04151917 C97.33694405 172.6598279 97.33694405 172.6598279 93.37753296 177.86611938 C90.56079408 179.94685746 87.9211806 181.36704512 84.7265625 182.77734375 C83.06811118 183.8411994 81.42411274 184.92841254 79.8046875 186.05078125 C78.19716433 187.08751246 76.5877602 188.12133245 74.9765625 189.15234375 C73.23649867 190.27399452 71.49691994 191.39639818 69.7578125 192.51953125 C68.90960938 193.06706055 68.06140625 193.61458984 67.1875 194.17871094 C63.595193 196.51228497 60.03416595 198.8913297 56.4765625 201.27734375 C42.26988129 210.77734375 42.26988129 210.77734375 39.7265625 210.77734375 C39.7265625 211.43734375 39.7265625 212.09734375 39.7265625 212.77734375 C36.7565625 213.76734375 36.7565625 213.76734375 33.7265625 214.77734375 C33.7265625 215.43734375 33.7265625 216.09734375 33.7265625 216.77734375 C32.96085937 217.17953125 32.96085937 217.17953125 32.1796875 217.58984375 C26.63312419 220.57948071 21.41700181 223.92132414 16.19921875 227.44921875 C11.32253271 230.73791132 6.36836737 233.90787832 1.42578125 237.09619141 C0.7296875 237.54526855 0.03359375 237.9943457 -0.68359375 238.45703125 C-1.30371338 238.85647949 -1.92383301 239.25592773 -2.56274414 239.66748047 C-4.14119248 240.69154585 -5.70789799 241.73365074 -7.2734375 242.77734375 C-12.40853694 242.63855728 -16.42339165 239.42354644 -20.5859375 236.71484375 C-21.39611328 236.19623779 -22.20628906 235.67763184 -23.04101562 235.14331055 C-31.24923341 229.86031258 -39.3556397 224.41907717 -47.4387207 218.94702148 C-48.41542725 218.28903564 -49.39213379 217.6310498 -50.3984375 216.953125 C-51.26726562 216.36442627 -52.13609375 215.77572754 -53.03125 215.16918945 C-55.30395231 213.63846917 -55.30395231 213.63846917 -58.2734375 212.77734375 C-58.2734375 212.11734375 -58.2734375 211.45734375 -58.2734375 210.77734375 C-58.99660156 210.51050781 -59.71976563 210.24367188 -60.46484375 209.96875 C-63.28092566 208.77416727 -65.65059101 207.38360579 -68.2109375 205.71484375 C-69.17 205.09351563 -70.1290625 204.4721875 -71.1171875 203.83203125 C-72.15875 203.15398437 -73.2003125 202.4759375 -74.2734375 201.77734375 C-75.40814744 201.04967801 -76.54358348 200.32314349 -77.6796875 199.59765625 C-91.47641869 190.78195787 -91.47641869 190.78195787 -97.00119019 186.82237244 C-100.19950133 184.64522883 -100.19950133 184.64522883 -103.87380981 183.57936096 C-108.48048236 181.7221464 -111.64328734 180.08808366 -114.2734375 175.77734375 C-116.82603156 165.97828866 -115.94497033 155.23089487 -115.69295263 145.18122172 C-115.60508451 141.08561585 -115.5971841 136.98985085 -115.58059692 132.89344788 C-115.53718096 125.14693932 -115.42244384 117.40321598 -115.28170407 109.65793091 C-115.12490143 100.83603594 -115.04816772 92.01400375 -114.97796798 83.1910609 C-114.83185686 65.05157938 -114.58581367 46.9146859 -114.2734375 28.77734375 C-109.65204395 26.38982805 -105.16862387 24.77080052 -100.1484375 23.46484375 C-98.54115874 23.03313664 -96.9344055 22.59946922 -95.328125 22.1640625 C-94.49764648 21.93895996 -93.66716797 21.71385742 -92.81152344 21.48193359 C-88.611367 20.31594172 -84.4435267 19.045954 -80.2734375 17.77734375 C-73.85908484 15.82965326 -67.42932509 13.97446209 -60.9609375 12.21484375 C-55.67737975 10.77051202 -50.46325868 9.22410517 -45.2734375 7.46484375 C-38.10812003 5.04001923 -30.92082829 2.69147413 -23.7109375 0.40234375 C-22.01420898 -0.1532019 -22.01420898 -0.1532019 -20.28320312 -0.7199707 C-18.66768555 -1.22790161 -18.66768555 -1.22790161 -17.01953125 -1.74609375 C-16.05716553 -2.05466309 -15.0947998 -2.36323242 -14.10327148 -2.68115234 C-8.87592499 -3.68143312 -4.72145654 -2.1906407 0 0 Z " fill="#246D95" transform="translate(259.2734375,95.22265625)"/>
<path d="M0 0 C3.02847405 0.73629334 5.59299936 1.67698811 8.41552734 2.98657227 C9.39682617 3.4385498 10.378125 3.89052734 11.38916016 4.35620117 C12.42137695 4.84137207 13.45359375 5.32654297 14.51708984 5.82641602 C15.59055664 6.32447754 16.66402344 6.82253906 17.77001953 7.33569336 C24.31586552 10.38865393 30.80323818 13.53876624 37.23168945 16.83105469 C43.62323928 20.07738376 50.17822627 22.95420396 56.75830078 25.7956543 C57.57459961 26.15385254 58.39089844 26.51205078 59.23193359 26.88110352 C60.3281604 27.35459229 60.3281604 27.35459229 61.4465332 27.83764648 C63.14208984 28.76391602 63.14208984 28.76391602 64.14208984 30.76391602 C65.31398856 38.13694656 66.24733656 46.62876443 61.97021484 52.99829102 C59.15022739 55.50667765 56.26707309 57.65154354 53.14208984 59.76391602 C51.7684827 60.92887397 50.41191675 62.11446361 49.07958984 63.32641602 C48.45697266 63.86524414 47.83435547 64.40407227 47.19287109 64.95922852 C45.61070506 66.35153463 44.0495289 67.76771647 42.49755859 69.19360352 C41.59650391 70.02118164 40.69544922 70.84875977 39.76708984 71.70141602 C38.93435547 72.47356445 38.10162109 73.24571289 37.24365234 74.04125977 C35.14208984 75.76391602 35.14208984 75.76391602 33.14208984 75.76391602 C33.14208984 76.42391602 33.14208984 77.08391602 33.14208984 77.76391602 C30.56756789 80.33843797 28.97844942 81.67150059 25.31396484 82.07641602 C21.58973876 81.70949719 19.66143686 80.63986412 16.51708984 78.63891602 C14.94314453 77.69725586 14.94314453 77.69725586 13.33740234 76.73657227 C11.2869001 75.4706754 9.25806599 74.16857746 7.25927734 72.82250977 C1.34463049 69.22053818 -2.3724015 68.31989394 -9.17041016 69.95141602 C-12.03728516 70.87954102 -14.90416016 71.80766602 -17.85791016 72.76391602 C-29.24291016 76.22891602 -29.24291016 76.22891602 -40.85791016 79.76391602 C-41.18791016 101.21391602 -41.51791016 122.66391602 -41.85791016 144.76391602 C-40.20791016 145.42391602 -38.55791016 146.08391602 -36.85791016 146.76391602 C-35.13336722 147.78750915 -33.43512351 148.85623121 -31.76025391 149.95922852 C-30.31851807 150.90487671 -30.31851807 150.90487671 -28.84765625 151.86962891 C-27.84041504 152.53599365 -26.83317383 153.2023584 -25.79541016 153.88891602 C-24.76496582 154.56237061 -23.73452148 155.2358252 -22.67285156 155.9296875 C-18.35394202 158.75883581 -14.0482372 161.59197292 -9.85400391 164.60375977 C-8.82404297 165.33723633 -7.79408203 166.07071289 -6.73291016 166.82641602 C-5.88470703 167.45676758 -5.03650391 168.08711914 -4.16259766 168.73657227 C-1.88693673 170.05576769 -1.88693673 170.05576769 0.47509766 169.03173828 C3.22628093 167.72389365 5.61256443 166.23602518 8.11865234 164.50610352 C9.03646484 163.8809082 9.95427734 163.25571289 10.89990234 162.61157227 C12.82031208 161.29030943 14.73957375 159.96737645 16.65771484 158.64282227 C18.03056641 157.70889648 18.03056641 157.70889648 19.43115234 156.75610352 C20.26340332 156.18230957 21.0956543 155.60851562 21.953125 155.01733398 C24.14208984 153.76391602 24.14208984 153.76391602 27.14208984 153.76391602 C27.14208984 153.10391602 27.14208984 152.44391602 27.14208984 151.76391602 C28.06441406 151.25731445 28.06441406 151.25731445 29.00537109 150.74047852 C29.81361328 150.29446289 30.62185547 149.84844727 31.45458984 149.38891602 C32.25509766 148.94805664 33.05560547 148.50719727 33.88037109 148.05297852 C35.67736927 147.02878266 37.42109692 145.91124463 39.14208984 144.76391602 C39.53999108 141.58045283 39.53999108 141.58045283 39.51708984 137.95141602 C39.89911605 131.11661991 39.89911605 131.11661991 42.07958984 127.95141602 C43.09021484 127.22954102 44.10083984 126.50766602 45.14208984 125.76391602 C46.77607033 124.27370369 48.40013334 122.7725832 50.01708984 121.26391602 C60.64313325 111.76391602 60.64313325 111.76391602 64.14208984 111.76391602 C64.4988862 118.14851355 64.74290111 124.53052765 64.91113281 130.92285156 C64.98128164 133.09342443 65.07664307 135.2633415 65.19824219 137.43164062 C66.15606385 154.95816723 66.15606385 154.95816723 62.83053589 159.59109497 C59.60960088 162.5383538 55.99244548 164.29433661 51.98106384 165.9311676 C48.86139349 167.3438578 46.23246705 169.33232073 43.45458984 171.32641602 C38.50271363 174.76391602 38.50271363 174.76391602 35.14208984 174.76391602 C35.14208984 175.42391602 35.14208984 176.08391602 35.14208984 176.76391602 C33.44677734 177.95532227 33.44677734 177.95532227 31.01708984 179.32641602 C26.65855909 181.8575741 22.38078296 184.47650069 18.14208984 187.20141602 C17.5464624 187.58160889 16.95083496 187.96180176 16.3371582 188.35351562 C11.840576 191.24729476 7.54370988 194.35710663 3.32568359 197.64672852 C1.14208984 198.76391602 1.14208984 198.76391602 -1.19384766 198.73266602 C-4.81955677 197.41422634 -7.79056862 195.34338157 -10.92041016 193.13891602 C-16.7214137 189.14188747 -22.57869183 185.52696585 -28.76025391 182.13891602 C-29.45248047 181.68516602 -30.14470703 181.23141602 -30.85791016 180.76391602 C-30.85791016 180.10391602 -30.85791016 179.44391602 -30.85791016 178.76391602 C-31.40141113 178.67021729 -31.94491211 178.57651855 -32.50488281 178.47998047 C-35.54869246 177.55369974 -37.83511719 176.03580199 -40.50634766 174.30688477 C-41.59431641 173.6062793 -42.68228516 172.90567383 -43.80322266 172.18383789 C-44.94650969 171.43978617 -46.08973839 170.69564482 -47.23291016 169.95141602 C-48.36800519 169.21849578 -49.50341893 168.48606888 -50.63916016 167.75415039 C-53.71755019 165.76556865 -56.79181434 163.7713992 -59.85791016 161.76391602 C-61.4119455 161.0044442 -61.4119455 161.0044442 -62.99737549 160.22962952 C-66.07202144 157.57935714 -66.28020721 157.35598684 -66.57943726 153.60040283 C-66.59681909 151.86880935 -66.58089828 150.13669286 -66.5390625 148.40551758 C-66.53993866 147.45883713 -66.54081482 146.51215668 -66.54171753 145.53678894 C-66.53753823 142.40853275 -66.49086885 139.28242242 -66.44384766 136.15454102 C-66.43265677 133.9855059 -66.42411608 131.81645561 -66.41812134 129.6473999 C-66.39521485 123.93908803 -66.33627477 118.23169253 -66.26989746 112.52374268 C-66.20851485 106.69897865 -66.18111485 100.87406651 -66.15087891 95.04907227 C-66.08653425 83.62028428 -65.98413182 72.19217635 -65.85791016 60.76391602 C-64.64337158 60.43125732 -63.42883301 60.09859863 -62.17749023 59.75585938 C-60.55661239 59.30942867 -58.93576436 58.8628897 -57.31494141 58.41625977 C-56.51769653 58.19820679 -55.72045166 57.98015381 -54.89904785 57.75549316 C-50.05799172 56.41879286 -45.29543612 54.95756366 -40.54541016 53.32641602 C-31.8406226 50.35267238 -23.00124428 47.8700469 -14.13916016 45.41088867 C-12.11862376 44.83785556 -10.1119352 44.21648012 -8.10791016 43.58813477 C1.15670205 41.23857566 6.63411266 45.42849989 14.53076172 49.94165039 C15.43503906 50.44116211 16.33931641 50.94067383 17.27099609 51.45532227 C18.08640869 51.92139893 18.90182129 52.38747559 19.74194336 52.86767578 C22.68118021 53.96521809 24.18479204 53.72038149 27.14208984 52.76391602 C29.65653554 50.94337605 29.65653554 50.94337605 31.95458984 48.70141602 C33.13988281 47.60120117 33.13988281 47.60120117 34.34912109 46.47875977 C34.94080078 45.91286133 35.53248047 45.34696289 36.14208984 44.76391602 C32.67053536 41.91636246 28.83860438 39.97893984 24.82958984 38.01391602 C24.13043457 37.66901123 23.4312793 37.32410645 22.7109375 36.96875 C20.5241756 35.89452102 18.33351229 34.82860041 16.14208984 33.76391602 C15.44390137 33.42183105 14.74571289 33.07974609 14.02636719 32.72729492 C12.02766021 31.7509178 10.02363599 30.78656339 8.01708984 29.82641602 C6.83888672 29.26051758 5.66068359 28.69461914 4.44677734 28.11157227 C1.29141312 26.82481026 -1.48648233 26.1686923 -4.85791016 25.76391602 C-3.53791016 25.10391602 -2.21791016 24.44391602 -0.85791016 23.76391602 C-1.35291016 22.77391602 -1.35291016 22.77391602 -1.85791016 21.76391602 C-1.87396057 20.24002839 -1.82348446 18.71510927 -1.73681641 17.19360352 C-1.68847656 16.29770508 -1.64013672 15.40180664 -1.59033203 14.47875977 C-1.53425781 13.54161133 -1.47818359 12.60446289 -1.42041016 11.63891602 C-1.36820312 10.6940332 -1.31599609 9.74915039 -1.26220703 8.77563477 C-1.13234255 6.43807412 -0.99737146 4.10092056 -0.85791016 1.76391602 C-2.50791016 1.76391602 -4.15791016 1.76391602 -5.85791016 1.76391602 C-2.85791016 -0.23608398 -2.85791016 -0.23608398 0 0 Z " fill="#256E94" transform="translate(250.85791015625,92.236083984375)"/>
<path d="M0 0 C0.99 0.495 0.99 0.495 2 1 C2 10.9 2 20.8 2 31 C1.34 31 0.68 31 0 31 C0 31.66 0 32.32 0 33 C-5.47619048 38 -5.47619048 38 -8 38 C-8 38.66 -8 39.32 -8 40 C-12.47058824 44 -12.47058824 44 -15 44 C-15 44.66 -15 45.32 -15 46 C-15.66 46 -16.32 46 -17 46 C-17 46.66 -17 47.32 -17 48 C-18.69274284 49.56432787 -20.45569852 51.05328572 -22.25 52.5 C-23.22453125 53.2940625 -24.1990625 54.088125 -25.203125 54.90625 C-27.44894762 56.58748034 -29.4465803 57.88135899 -32 59 C-32 59.66 -32 60.32 -32 61 C-32.66 61 -33.32 61 -34 61 C-34 61.66 -34 62.32 -34 63 C-38.47058824 67 -38.47058824 67 -41 67 C-41 67.66 -41 68.32 -41 69 C-44.46153846 72 -44.46153846 72 -47 72 C-47 72.66 -47 73.32 -47 74 C-47.66 74 -48.32 74 -49 74 C-49 74.66 -49 75.32 -49 76 C-50.51151546 77.35097374 -52.08813313 78.62927345 -53.6875 79.875 C-58.18676594 83.46977434 -62.4787979 87.19495064 -66.6875 91.125 C-70.69696091 94.86619364 -74.72995078 98.55460966 -78.88671875 102.1328125 C-80.64528322 103.68659035 -82.36767122 105.26532101 -84.08203125 106.8671875 C-84.62529053 107.37306396 -85.1685498 107.87894043 -85.72827148 108.40014648 C-86.81113945 109.41109083 -87.89020513 110.42612614 -88.96508789 111.44555664 C-92.7784436 115 -92.7784436 115 -95 115 C-95 115.66 -95 116.32 -95 117 C-99.975 121.975 -99.975 121.975 -103.5625 122.0625 C-106.52127611 120.77277708 -108.65456397 119.21141112 -111 117 C-111 116.34 -111 115.68 -111 115 C-111.66 115 -112.32 115 -113 115 C-113 114.34 -113 113.68 -113 113 C-114.485 112.505 -114.485 112.505 -116 112 C-116 111.34 -116 110.68 -116 110 C-116.66 110 -117.32 110 -118 110 C-118 109.34 -118 108.68 -118 108 C-118.5775 107.75121094 -119.155 107.50242187 -119.75 107.24609375 C-122.31784817 105.82396951 -123.97749044 104.18376491 -126 102.0625 C-128.5251518 99.42391364 -131.02233271 97.12025863 -134 95 C-133.72002756 89.50424472 -130.39731896 86.76634239 -126.6875 83.125 C-126.10548828 82.51914063 -125.52347656 81.91328125 -124.92382812 81.2890625 C-124.07014648 80.43828125 -124.07014648 80.43828125 -123.19921875 79.5703125 C-122.68190186 79.05227051 -122.16458496 78.53422852 -121.6315918 78.00048828 C-120 77 -120 77 -117.92504883 77.27685547 C-116 78 -116 78 -114 79 C-114 79.66 -114 80.32 -114 81 C-113.34 81 -112.68 81 -112 81 C-112 81.66 -112 82.32 -112 83 C-111.34 83 -110.68 83 -110 83 C-110 83.66 -110 84.32 -110 85 C-109.34 85 -108.68 85 -108 85 C-108 85.66 -108 86.32 -108 87 C-105.35261084 88.4606285 -104.10551666 89 -101 89 C-100.67 88.34 -100.34 87.68 -100 87 C-99.34 87 -98.68 87 -98 87 C-98 86.34 -98 85.68 -98 85 C-96.30725716 83.43567213 -94.54430148 81.94671428 -92.75 80.5 C-91.77546875 79.7059375 -90.8009375 78.911875 -89.796875 78.09375 C-87.55105238 76.41251966 -85.5534197 75.11864101 -83 74 C-83 73.34 -83 72.68 -83 72 C-81.44759659 70.60674046 -79.82970015 69.28619872 -78.1875 68 C-74.16052706 64.78254658 -70.28942988 61.49961778 -66.5 58 C-62.98565879 54.76402245 -59.41609555 51.67365193 -55.6875 48.6875 C-50.52043677 44.52411093 -45.67611267 40.07334582 -40.8581543 35.51635742 C-31.83188209 27 -31.83188209 27 -29 27 C-29 26.34 -29 25.68 -29 25 C-28.34 25 -27.68 25 -27 25 C-27 24.34 -27 23.68 -27 23 C-21.52380952 18 -21.52380952 18 -19 18 C-19 17.34 -19 16.68 -19 16 C-17.48772933 14.6697891 -15.91330976 13.40972409 -14.3125 12.1875 C-11.38007886 9.91041484 -8.55643764 7.69545841 -6 5 C-5.34 4.34 -4.68 3.68 -4 3 C-3.34 3 -2.68 3 -2 3 C-2 2.34 -2 1.68 -2 1 C-1.34 0.67 -0.68 0.34 0 0 Z " fill="#23899A" transform="translate(353,122)"/>
<path d="M0 0 C3.02847405 0.73629334 5.59299936 1.67698811 8.41552734 2.98657227 C9.39682617 3.4385498 10.378125 3.89052734 11.38916016 4.35620117 C12.42137695 4.84137207 13.45359375 5.32654297 14.51708984 5.82641602 C16.12729004 6.5735083 16.12729004 6.5735083 17.77001953 7.33569336 C24.31586552 10.38865393 30.80323818 13.53876624 37.23168945 16.83105469 C43.62323928 20.07738376 50.17822627 22.95420396 56.75830078 25.7956543 C57.57459961 26.15385254 58.39089844 26.51205078 59.23193359 26.88110352 C60.3281604 27.35459229 60.3281604 27.35459229 61.4465332 27.83764648 C63.14208984 28.76391602 63.14208984 28.76391602 64.14208984 30.76391602 C65.31398856 38.13694656 66.24733656 46.62876443 61.97021484 52.99829102 C59.15022739 55.50667765 56.26707309 57.65154354 53.14208984 59.76391602 C51.7684827 60.92887397 50.41191675 62.11446361 49.07958984 63.32641602 C48.45697266 63.86524414 47.83435547 64.40407227 47.19287109 64.95922852 C45.61070506 66.35153463 44.0495289 67.76771647 42.49755859 69.19360352 C41.59650391 70.02118164 40.69544922 70.84875977 39.76708984 71.70141602 C38.93435547 72.47356445 38.10162109 73.24571289 37.24365234 74.04125977 C35.14208984 75.76391602 35.14208984 75.76391602 33.14208984 75.76391602 C33.14208984 76.42391602 33.14208984 77.08391602 33.14208984 77.76391602 C30.56756789 80.33843797 28.97844942 81.67150059 25.31396484 82.07641602 C21.58973876 81.70949719 19.66143686 80.63986412 16.51708984 78.63891602 C10.55503903 74.97053638 4.43981092 71.812281 -1.85791016 68.76391602 C-1.69419922 67.78293945 -1.53048828 66.80196289 -1.36181641 65.79125977 C-0.76631163 61.62272635 -0.74541441 57.52990466 -0.79541016 53.32641602 C-0.79992187 52.59487305 -0.80443359 51.86333008 -0.80908203 51.10961914 C-0.82072868 49.32768183 -0.83865824 47.54578739 -0.85791016 45.76391602 C-1.48439453 45.85930664 -2.11087891 45.95469727 -2.75634766 46.05297852 C-3.57361328 46.16383789 -4.39087891 46.27469727 -5.23291016 46.38891602 C-6.04501953 46.50493164 -6.85712891 46.62094727 -7.69384766 46.74047852 C-8.40798828 46.74821289 -9.12212891 46.75594727 -9.85791016 46.76391602 C-10.51791016 46.10391602 -11.17791016 45.44391602 -11.85791016 44.76391602 C-1.68544052 41.50872573 -1.68544052 41.50872573 3.51025391 43.81518555 C7.23070236 45.7774154 10.8792324 47.85470171 14.53076172 49.94165039 C15.88717773 50.69091797 15.88717773 50.69091797 17.27099609 51.45532227 C18.08640869 51.92139893 18.90182129 52.38747559 19.74194336 52.86767578 C22.68118021 53.96521809 24.18479204 53.72038149 27.14208984 52.76391602 C29.65653554 50.94337605 29.65653554 50.94337605 31.95458984 48.70141602 C32.74478516 47.96793945 33.53498047 47.23446289 34.34912109 46.47875977 C34.94080078 45.91286133 35.53248047 45.34696289 36.14208984 44.76391602 C32.67053536 41.91636246 28.83860438 39.97893984 24.82958984 38.01391602 C24.13043457 37.66901123 23.4312793 37.32410645 22.7109375 36.96875 C20.5241756 35.89452102 18.33351229 34.82860041 16.14208984 33.76391602 C15.44390137 33.42183105 14.74571289 33.07974609 14.02636719 32.72729492 C12.02766021 31.7509178 10.02363599 30.78656339 8.01708984 29.82641602 C6.83888672 29.26051758 5.66068359 28.69461914 4.44677734 28.11157227 C1.29141312 26.82481026 -1.48648233 26.1686923 -4.85791016 25.76391602 C-3.53791016 25.10391602 -2.21791016 24.44391602 -0.85791016 23.76391602 C-1.18791016 23.10391602 -1.51791016 22.44391602 -1.85791016 21.76391602 C-1.87396057 20.24002839 -1.82348446 18.71510927 -1.73681641 17.19360352 C-1.68847656 16.29770508 -1.64013672 15.40180664 -1.59033203 14.47875977 C-1.53425781 13.54161133 -1.47818359 12.60446289 -1.42041016 11.63891602 C-1.36820313 10.6940332 -1.31599609 9.74915039 -1.26220703 8.77563477 C-1.13234255 6.43807412 -0.99737146 4.10092056 -0.85791016 1.76391602 C-2.50791016 1.76391602 -4.15791016 1.76391602 -5.85791016 1.76391602 C-2.85791016 -0.23608398 -2.85791016 -0.23608398 0 0 Z " fill="#26969E" transform="translate(250.85791015625,92.236083984375)"/>
<path d="M0 0 C0 33.66 0 67.32 0 102 C-0.33 102 -0.66 102 -1 102 C-1.495 66.36 -1.495 66.36 -2 30 C-2.33 30 -2.66 30 -3 30 C-2.98952637 29.37432129 -2.97905273 28.74864258 -2.96826172 28.10400391 C-2.92676809 25.2777099 -2.90069527 22.45147989 -2.875 19.625 C-2.85824219 18.64015625 -2.84148437 17.6553125 -2.82421875 16.640625 C-2.81777344 15.69960937 -2.81132812 14.75859375 -2.8046875 13.7890625 C-2.79421387 12.91975098 -2.78374023 12.05043945 -2.77294922 11.15478516 C-2.79404891 8.78654061 -2.79404891 8.78654061 -5 7 C-8.48964576 10.1749911 -8.48964576 10.1749911 -10.9375 14.125 C-12 16 -12 16 -15 17.3125 C-18.20321694 18.71557139 -18.20321694 18.71557139 -19.17529297 21.72167969 C-20.65971579 27.72353523 -20.24364012 34.00457337 -20.1953125 40.140625 C-20.19157575 41.51348666 -20.18873191 42.88635101 -20.18673706 44.25921631 C-20.17914119 47.85509746 -20.15953538 51.45081421 -20.1373291 55.04663086 C-20.11682626 58.71075227 -20.10771442 62.37490015 -20.09765625 66.0390625 C-20.0785629 72.47029194 -20.04959243 78.9014208 -20.01345825 85.33258057 C-19.98495305 90.98229771 -19.98495305 90.98229771 -22.125 93.5 C-25.29321276 96.25496762 -28.63247597 99 -33 99 C-33.33 99.99 -33.66 100.98 -34 102 C-36.8125 103.3125 -36.8125 103.3125 -40 104 C-42.19921875 103.04296875 -42.19921875 103.04296875 -44 102 C-41.60794581 100.36919073 -39.21167218 98.74527814 -36.8125 97.125 C-36.13896484 96.66480469 -35.46542969 96.20460938 -34.77148438 95.73046875 C-34.11083984 95.28574219 -33.45019531 94.84101563 -32.76953125 94.3828125 C-32.16729736 93.97434082 -31.56506348 93.56586914 -30.94458008 93.14501953 C-28.71035086 91.82944702 -26.41230808 90.94164746 -24 90 C-24.03108856 89.13937454 -24.06217712 88.27874908 -24.09420776 87.39204407 C-24.37625223 79.22933563 -24.58861188 71.06829123 -24.72537041 62.90180683 C-24.7980552 58.70413092 -24.89636727 54.51052067 -25.05615234 50.31518555 C-26.14548897 20.95092216 -26.14548897 20.95092216 -21.06738281 14.04052734 C-18.31566879 11.16953639 -15.33423261 9.0489511 -11.86431885 7.12875366 C-9.12681977 5.47133218 -6.88974769 3.33594983 -4.56466675 1.15058899 C-3 0 -3 0 0 0 Z " fill="#4C8D93" transform="translate(355,168)"/>
<path d="M0 0 C0.66 0.33 1.32 0.66 2 1 C2 10.9 2 20.8 2 31 C1.34 31 0.68 31 0 31 C0 31.66 0 32.32 0 33 C-5.47619048 38 -5.47619048 38 -8 38 C-8 38.66 -8 39.32 -8 40 C-12.47058824 44 -12.47058824 44 -15 44 C-15 44.66 -15 45.32 -15 46 C-15.66 46 -16.32 46 -17 46 C-16.67 44.35 -16.34 42.7 -16 41 C-15.34 41 -14.68 41 -14 41 C-14 40.01 -14 39.02 -14 38 C-12.35178756 36.96986723 -10.68496298 35.96885372 -9 35 C-9 34.34 -9 33.68 -9 33 C-5.91190305 31.23537317 -4.76687864 31 -1 31 C-0.04623433 27.79217914 0.11621181 24.91812604 0.09765625 21.578125 C0.09443359 20.55332031 0.09121094 19.52851563 0.08789062 18.47265625 C0.07951172 17.40917969 0.07113281 16.34570312 0.0625 15.25 C0.05798828 14.17105469 0.05347656 13.09210938 0.04882812 11.98046875 C0.03705727 9.32025617 0.02061399 6.66015635 0 4 C-0.99 4.33 -1.98 4.66 -3 5 C-3.33 6.98 -3.66 8.96 -4 11 C-4.99 11.33 -5.98 11.66 -7 12 C-7.28875 12.5775 -7.5775 13.155 -7.875 13.75 C-9.41076709 16.82153418 -11.43477998 18.74016331 -14 21 C-14.6496875 21.12890625 -15.299375 21.2578125 -15.96875 21.390625 C-18.76922807 22.23076842 -19.51342884 23.6704559 -21.125 26.0625 C-22.6328125 28.28515625 -22.6328125 28.28515625 -24 30 C-24.66 30 -25.32 30 -26 30 C-25.67 28.35 -25.34 26.7 -25 25 C-25.66 25 -26.32 25 -27 25 C-27 24.34 -27 23.68 -27 23 C-21.52380952 18 -21.52380952 18 -19 18 C-19 17.34 -19 16.68 -19 16 C-17.48772933 14.6697891 -15.91330976 13.40972409 -14.3125 12.1875 C-11.38007886 9.91041484 -8.55643764 7.69545841 -6 5 C-5.34 4.34 -4.68 3.68 -4 3 C-3.34 3 -2.68 3 -2 3 C-2 2.34 -2 1.68 -2 1 C-1.34 0.67 -0.68 0.34 0 0 Z " fill="#4E9595" transform="translate(353,122)"/>
<path d="M0 0 C0.33 0.66 0.66 1.32 1 2 C1.66 2.33 2.32 2.66 3 3 C1.68 3 0.36 3 -1 3 C-1.33 41.94 -1.66 80.88 -2 121 C-4.12822094 117.80766859 -4.25268353 117.00087015 -4.26742554 113.33827209 C-4.27595551 112.38071518 -4.28448547 111.42315826 -4.29327393 110.43658447 C-4.29236755 109.38767029 -4.29146118 108.3387561 -4.29052734 107.25805664 C-4.29724457 106.15213669 -4.30396179 105.04621674 -4.31088257 103.90678406 C-4.32992244 100.2411961 -4.33378968 96.57579062 -4.3359375 92.91015625 C-4.34236079 90.36811751 -4.3490888 87.82607952 -4.35610962 85.28404236 C-4.36809707 79.95179226 -4.37187439 74.61961049 -4.37060547 69.28735352 C-4.36940364 63.12458839 -4.39051313 56.96217325 -4.4220928 50.79949671 C-4.45139397 44.87013523 -4.45858169 38.94088075 -4.45738602 33.01144218 C-4.45975066 30.48880012 -4.46862236 27.96615564 -4.48405075 25.44355965 C-4.50358884 21.91918797 -4.49792014 18.39572336 -4.48583984 14.87133789 C-4.49707886 13.82444794 -4.50831787 12.77755798 -4.51989746 11.69894409 C-4.45792529 4.60432083 -4.45792529 4.60432083 -1.96963501 1.32054138 C-1.31965546 0.88476273 -0.6696759 0.44898407 0 0 Z " fill="#215378" transform="translate(170,136)"/>
<path d="M0 0 C0 15.18 0 30.36 0 46 C-4.455 48.475 -4.455 48.475 -9 51 C-8.67 49.68 -8.34 48.36 -8 47 C-5.525 46.505 -5.525 46.505 -3 46 C-3.08378906 45.06542969 -3.16757812 44.13085938 -3.25390625 43.16796875 C-4.09296277 32.34520174 -3.76451201 21.82078533 -3 11 C-4.99886881 10.93274331 -7.00099314 10.93697961 -9 11 C-9.515625 11.515625 -10.03125 12.03125 -10.5625 12.5625 C-11.036875 13.036875 -11.51125 13.51125 -12 14 C-14.6875 13.6875 -14.6875 13.6875 -17 13 C-4.8125 0 -4.8125 0 0 0 Z " fill="#388496" transform="translate(315,204)"/>
<path d="M0 0 C0.66 0.33 1.32 0.66 2 1 C1.67 22.45 1.34 43.9 1 66 C2.65 66.66 4.3 67.32 6 68 C10.02736122 70.31592539 13.90908157 72.85697321 17.8125 75.375 C18.88693359 76.04789062 19.96136719 76.72078125 21.06835938 77.4140625 C22.08349609 78.06890625 23.09863281 78.72375 24.14453125 79.3984375 C25.07628174 79.99317871 26.00803223 80.58791992 26.96801758 81.20068359 C27.63857178 81.79445801 28.30912598 82.38823242 29 83 C29 84.32 29 85.64 29 87 C27.68 87 26.36 87 25 87 C24.505 86.01 24.505 86.01 24 85 C22.515 84.319375 22.515 84.319375 21 83.625 C18 82 18 82 17.125 79.8125 C17.08375 79.214375 17.0425 78.61625 17 78 C16.05125 77.896875 15.1025 77.79375 14.125 77.6875 C11 77 11 77 9 74 C6.43717258 73.27034634 6.43717258 73.27034634 4 73 C4 72.34 4 71.68 4 71 C3.360625 70.731875 2.72125 70.46375 2.0625 70.1875 C0 69 0 69 -1 66 C-1.06121289 63.86780956 -1.05829004 61.73358565 -1.02172852 59.60083008 C-1.01212097 58.95665634 -1.00251343 58.3124826 -0.99261475 57.64878845 C-0.95966696 55.52225672 -0.91931883 53.39593314 -0.87890625 51.26953125 C-0.85460099 49.79409008 -0.83075763 48.31864123 -0.80735779 46.84318542 C-0.74455717 42.96167247 -0.67547919 39.08029557 -0.60510254 35.19891357 C-0.53438273 31.23748973 -0.4695876 27.27596951 -0.40429688 23.31445312 C-0.2753364 15.54286213 -0.1397455 7.77140533 0 0 Z " fill="#7797B0" transform="translate(208,171)"/>
<path d="M0 0 C0.66 0.33 1.32 0.66 2 1 C1.92894547 1.56964981 1.85789093 2.13929962 1.78468323 2.72621155 C0.97312551 9.8743828 0.87046644 16.93252746 0.90234375 24.12109375 C0.90446617 25.95366478 0.90446617 25.95366478 0.90663147 27.82325745 C0.91218981 31.69469745 0.9247278 35.56607776 0.9375 39.4375 C0.942521 42.06445228 0.94708285 44.69140548 0.95117188 47.31835938 C0.96097008 53.07244022 0.97515476 58.82649072 0.99327087 64.58055115 C1.00831658 69.99021579 1.00831658 69.99021579 -1.125 72.5 C-4.29321276 75.25496762 -7.63247597 78 -12 78 C-12.33 78.99 -12.66 79.98 -13 81 C-15.8125 82.3125 -15.8125 82.3125 -19 83 C-21.19921875 82.04296875 -21.19921875 82.04296875 -23 81 C-20.60794581 79.36919073 -18.21167218 77.74527814 -15.8125 76.125 C-15.13896484 75.66480469 -14.46542969 75.20460938 -13.77148438 74.73046875 C-6.95651931 70.14283373 -6.95651931 70.14283373 -3 69 C-2.34 69.33 -1.68 69.66 -1 70 C-1.00222061 69.13778336 -1.00444122 68.27556671 -1.00672913 67.38722229 C-1.02672995 59.27893964 -1.04197306 51.17066523 -1.05181217 43.06236362 C-1.05704051 38.89337172 -1.06413726 34.72440013 -1.07543945 30.55541992 C-1.08627008 26.53542314 -1.09227721 22.51544595 -1.09487724 18.49543571 C-1.09673118 16.95837025 -1.10035119 15.42130591 -1.10573006 13.88424873 C-1.11294284 11.73864513 -1.11399084 9.59312345 -1.11352539 7.44750977 C-1.115746 6.22395279 -1.11796661 5.00039581 -1.12025452 3.73976135 C-1 1 -1 1 0 0 Z " fill="#2E8493" transform="translate(334,189)"/>
<path d="M0 0 C0.66 0.66 1.32 1.32 2 2 C2.99 2 3.98 2 5 2 C1.375 5 1.375 5 -2 5 C-2.226875 5.53625 -2.45375 6.0725 -2.6875 6.625 C-5.23788141 11.23997588 -8.10707208 14.90303089 -13 17 C-13.33 17.66 -13.66 18.32 -14 19 C-14.66 19 -15.32 19 -16 19 C-16.33 19.99 -16.66 20.98 -17 22 C-17.99 22 -18.98 22 -20 22 C-19.67 22.66 -19.34 23.32 -19 24 C-19.721875 24.4125 -20.44375 24.825 -21.1875 25.25 C-24.03953929 26.91248009 -24.03953929 26.91248009 -26.375 29.125 C-29.58832102 31.4202293 -32.1093617 31.6948519 -36 32 C-34.71034824 30.62437146 -33.37310707 29.29233607 -32 28 C-31.34 28 -30.68 28 -30 28 C-30 27.34 -30 26.68 -30 26 C-28.30725716 24.43567213 -26.54430148 22.94671428 -24.75 21.5 C-23.28820312 20.30890625 -23.28820312 20.30890625 -21.796875 19.09375 C-19.55105238 17.41251966 -17.5534197 16.11864101 -15 15 C-15 14.34 -15 13.68 -15 13 C-13.30096977 11.48259024 -11.53927277 10.034872 -9.75 8.625 C-6.30145932 5.89718607 -3.04493931 3.17543671 0 0 Z " fill="#3D8797" transform="translate(285,181)"/>
<path d="M0 0 C0.66 0.33 1.32 0.66 2 1 C1.67 1.99 1.34 2.98 1 4 C0.01 4 -0.98 4 -2 4 C-2 4.66 -2 5.32 -2 6 C-2.928125 6.12375 -2.928125 6.12375 -3.875 6.25 C-4.57625 6.4975 -5.2775 6.745 -6 7 C-6.268125 7.598125 -6.53625 8.19625 -6.8125 8.8125 C-9.05587379 12.94503067 -13.66437273 14.55479091 -18 16 C-18.66 16.99 -19.32 17.98 -20 19 C-20.66 19 -21.32 19 -22 19 C-22 19.66 -22 20.32 -22 21 C-29.87746171 25.23632385 -29.87746171 25.23632385 -34.5625 24.25 C-35.366875 23.8375 -36.17125 23.425 -37 23 C-36.67 22.34 -36.34 21.68 -36 21 C-34.700625 20.82984375 -34.700625 20.82984375 -33.375 20.65625 C-29.21212399 19.84680189 -26.38982459 17.9069098 -23 15.5 C-21.68571984 14.59385577 -20.37059348 13.68893783 -19.0546875 12.78515625 C-18.38791992 12.32383301 -17.72115234 11.86250977 -17.03417969 11.38720703 C-13.18320693 8.76103958 -9.2388322 6.2801917 -5.3046875 3.78125 C-2.50680473 2.08002188 -2.50680473 2.08002188 0 0 Z " fill="#407193" transform="translate(284,287)"/>
<path d="M0 0 C0.66 0.33 1.32 0.66 2 1 C1.34 2.32 0.68 3.64 0 5 C-0.66 5 -1.32 5 -2 5 C-2.226875 5.556875 -2.45375 6.11375 -2.6875 6.6875 C-4.390976 9.68886248 -6.41552657 11.72320198 -9 14 C-9.6496875 14.12890625 -10.299375 14.2578125 -10.96875 14.390625 C-13.76922807 15.23076842 -14.51342884 16.6704559 -16.125 19.0625 C-17.6328125 21.28515625 -17.6328125 21.28515625 -19 23 C-19.66 23 -20.32 23 -21 23 C-20.67 21.35 -20.34 19.7 -20 18 C-20.66 18 -21.32 18 -22 18 C-22 17.34 -22 16.68 -22 16 C-16.52380952 11 -16.52380952 11 -14 11 C-14 10.34 -14 9.68 -14 9 C-9.85546646 5.03429151 -5.86001992 2.293001 0 2 C0 1.34 0 0.68 0 0 Z " fill="#25A29D" transform="translate(348,129)"/>
<path d="M0 0 C0.66 0.33 1.32 0.66 2 1 C-0.03751441 5.27878027 -2.31600076 9.11282869 -5 13 C-5.66 12.67 -6.32 12.34 -7 12 C-8.6085796 13.6085796 -10.06673995 15.34917485 -11.5625 17.0625 C-12.20316406 17.79597656 -12.84382813 18.52945313 -13.50390625 19.28515625 C-13.99761719 19.85105469 -14.49132812 20.41695312 -15 21 C-15.33 20.34 -15.66 19.68 -16 19 C-16.66 19 -17.32 19 -18 19 C-18 19.66 -18 20.32 -18 21 C-18.66 21 -19.32 21 -20 21 C-20.33 21.99 -20.66 22.98 -21 24 C-21.66 24 -22.32 24 -23 24 C-23.66 25.32 -24.32 26.64 -25 28 C-25.99 27.67 -26.98 27.34 -28 27 C-25.60013679 22.27796699 -22.388756 19.48504675 -18.375 16.1875 C-17.11649401 15.13494321 -15.85868245 14.08155557 -14.6015625 13.02734375 C-13.98829102 12.5154248 -13.37501953 12.00350586 -12.74316406 11.47607422 C-9.64002388 8.84840117 -6.65670933 6.0885357 -3.671875 3.328125 C-2 2 -2 2 0 2 C0 1.34 0 0.68 0 0 Z " fill="#439399" transform="translate(324,147)"/>
<path d="M0 0 C0.99 0 1.98 0 3 0 C3 33.66 3 67.32 3 102 C2.67 102 2.34 102 2 102 C2 69.66 2 37.32 2 4 C0.68 3.34 -0.64 2.68 -2 2 C-1.34 1.34 -0.68 0.68 0 0 Z " fill="#507C87" transform="translate(352,168)"/>
<path d="M0 0 C0.99 0.33 1.98 0.66 3 1 C2.67657623 1.97199844 2.35315247 2.94399689 2.01992798 3.94544983 C0.79018891 8.27530384 0.69327936 12.39462755 0.68115234 16.87280273 C0.66608391 18.16180733 0.66608391 18.16180733 0.65071106 19.47685242 C0.62000781 22.29575986 0.60287986 25.1145729 0.5859375 27.93359375 C0.5672155 29.89657903 0.54764132 31.85955635 0.5272522 33.82252502 C0.47603407 38.97300513 0.43635319 44.1235113 0.39910889 49.27410889 C0.35900444 54.53631991 0.30794152 59.79842349 0.2578125 65.06054688 C0.16117544 75.37362232 0.07673166 85.68675858 0 96 C-0.33 96 -0.66 96 -1 96 C-1.02312154 83.63081285 -1.04091412 71.26163081 -1.05181217 58.89242649 C-1.05704141 53.14954938 -1.0641398 47.40668699 -1.07543945 41.66381836 C-1.08626687 36.12660005 -1.09227652 30.58939596 -1.09487724 25.05216789 C-1.09673176 22.93455723 -1.10035286 20.81694738 -1.10573006 18.69934273 C-1.11293856 15.74428726 -1.11399102 12.78929129 -1.11352539 9.83422852 C-1.11712067 8.94950363 -1.12071594 8.06477875 -1.12442017 7.15324402 C-1.11405216 1.11405216 -1.11405216 1.11405216 0 0 Z " fill="#214D6E" transform="translate(187,153)"/>
<path d="M0 0 C-0.49927002 0.32274902 -0.99854004 0.64549805 -1.51293945 0.97802734 C-3.77960102 2.44346634 -6.04605266 3.90922969 -8.3125 5.375 C-9.49102539 6.13683594 -9.49102539 6.13683594 -10.69335938 6.9140625 C-11.45068359 7.40390625 -12.20800781 7.89375 -12.98828125 8.3984375 C-13.68477783 8.84880371 -14.38127441 9.29916992 -15.09887695 9.76318359 C-16.7399808 10.83083893 -18.37098455 11.9139897 -20 13 C-23.32240324 12.6758631 -24.60776303 12.39223697 -27 10 C-24.35261084 8.5393715 -23.10551666 8 -20 8 C-19.773125 7.360625 -19.54625 6.72125 -19.3125 6.0625 C-18 4 -18 4 -15.6875 3.4375 C-14.800625 3.293125 -13.91375 3.14875 -13 3 C-11.32260138 2.01810813 -9.65532623 1.01866229 -8 0 C-4.89511676 -1.12904845 -3.1396677 -0.86161359 0 0 Z " fill="#38668A" transform="translate(272,325)"/>
<path d="M0 0 C1.9375 0.375 1.9375 0.375 4 1 C6.85287889 6.70575778 6.32303472 15.89794755 5 22 C2.24700434 26.02101292 -0.83114993 28.52102308 -5 31 C-5.66 30.34 -6.32 29.68 -7 29 C-5.6875 27 -5.6875 27 -4 25 C-3.01 25 -2.02 25 -1 25 C-1 24.34 -1 23.68 -1 23 C-0.01 23 0.98 23 2 23 C2 16.73 2 10.46 2 4 C0.68 3.67 -0.64 3.34 -2 3 C-1.34 2.67 -0.68 2.34 0 2 C0 1.34 0 0.68 0 0 Z " fill="#589FA2" transform="translate(310,120)"/>
<path d="M0 0 C2.475 0.495 2.475 0.495 5 1 C0.94209847 4.34502694 -3.27794043 7.36210312 -7.625 10.3125 C-8.62660156 11.01342773 -8.62660156 11.01342773 -9.6484375 11.72851562 C-11.3797612 12.90062177 -13.18637429 13.959771 -15 15 C-15.99 14.67 -16.98 14.34 -18 14 C-17.67 13.34 -17.34 12.68 -17 12 C-16.01 12 -15.02 12 -14 12 C-14.33 10.68 -14.66 9.36 -15 8 C-14.34 8 -13.68 8 -13 8 C-13 7.34 -13 6.68 -13 6 C-11.35 6 -9.7 6 -8 6 C-8 5.34 -8 4.68 -8 4 C-7.34 4 -6.68 4 -6 4 C-5.67 3.34 -5.34 2.68 -5 2 C-2.4375 1.375 -2.4375 1.375 0 1 C0 0.67 0 0.34 0 0 Z " fill="#237892" transform="translate(333,280)"/>
<path d="M0 0 C0.66 0 1.32 0 2 0 C2.04939701 5.92650126 2.08571817 11.85288297 2.10986328 17.77954102 C2.11992773 19.79616381 2.13358047 21.81277199 2.15087891 23.8293457 C2.17510769 26.72611089 2.18647859 29.62268331 2.1953125 32.51953125 C2.20563507 33.42274612 2.21595764 34.325961 2.22659302 35.25654602 C2.22674408 36.09719101 2.22689514 36.937836 2.22705078 37.80395508 C2.231492 38.54341873 2.23593323 39.28288239 2.24050903 40.04475403 C2 42 2 42 0 45 C-0.16784025 38.75220534 -0.32780106 32.50424527 -0.48217773 26.25610352 C-0.53568206 24.12877795 -0.59101764 22.00149764 -0.64819336 19.87426758 C-0.72986981 16.8238298 -0.80504681 13.77329203 -0.87890625 10.72265625 C-0.90594131 9.76537125 -0.93297638 8.80808624 -0.96083069 7.8217926 C-0.98092697 6.94095505 -1.00102325 6.06011749 -1.02172852 5.15258789 C-1.04171402 4.37315323 -1.06169952 3.59371857 -1.08229065 2.79066467 C-1 1 -1 1 0 0 Z " fill="#2F6371" transform="translate(313,204)"/>
<path d="M0 0 C0.66 1.32 1.32 2.64 2 4 C1.52949219 4.35707031 1.05898438 4.71414062 0.57421875 5.08203125 C-1.65745888 7.8010231 -1.74241819 10.22955674 -2.1875 13.6875 C-2.34605469 14.86699219 -2.50460937 16.04648438 -2.66796875 17.26171875 C-2.77753906 18.16535156 -2.88710938 19.06898438 -3 20 C-3.66 20 -4.32 20 -5 20 C-5 20.99 -5 21.98 -5 23 C-7.31 23.33 -9.62 23.66 -12 24 C-11.1853125 23.48308594 -10.370625 22.96617187 -9.53125 22.43359375 C-6.69474223 20.19417568 -6.69474223 20.19417568 -6.46875 16.72265625 C-6.4790625 15.51480469 -6.489375 14.30695313 -6.5 13.0625 C-6.2424834 5.32090736 -6.2424834 5.32090736 -3.5 2.6875 C-2.2625 1.8521875 -2.2625 1.8521875 -1 1 C-0.67 0.67 -0.34 0.34 0 0 Z " fill="#4D8796" transform="translate(297,217)"/>
<path d="M0 0 C0 2.62113708 -0.31292445 4.50935112 -1 7 C2.25179812 9.21713508 5.4213696 11.34832443 9 13 C9 13.66 9 14.32 9 15 C9.66 15 10.32 15 11 15 C12.625 17.5 12.625 17.5 14 20 C12.3125 20.796875 12.3125 20.796875 10 21 C7.5625 19.015625 7.5625 19.015625 5 16.25 C2.13945844 13.19759285 -0.55757535 10.39057268 -4 8 C-3.50168276 4.31245243 -2.89932357 2.39509338 0 0 Z " fill="#39758E" transform="translate(223,209)"/>
<path d="M0 0 C2.125 0.9375 2.125 0.9375 4 2 C0.04466349 3.30096668 -3.91476306 4.58903542 -7.875 5.875 C-8.98359375 6.23980469 -10.0921875 6.60460937 -11.234375 6.98046875 C-17.77298952 9.09590286 -24.22148304 10.85139133 -31 12 C-29 9 -29 9 -27.0546875 8.48828125 C-26.33539063 8.43027344 -25.61609375 8.37226563 -24.875 8.3125 C-23.59625 8.209375 -22.3175 8.10625 -21 8 C-21 7.34 -21 6.68 -21 6 C-20.15236084 5.78065796 -20.15236084 5.78065796 -19.28759766 5.55688477 C-16.73279251 4.89440135 -14.17889227 4.22849346 -11.625 3.5625 C-10.73554688 3.33240234 -9.84609375 3.10230469 -8.9296875 2.86523438 C-8.07890625 2.64287109 -7.228125 2.42050781 -6.3515625 2.19140625 C-5.56604004 1.98717041 -4.78051758 1.78293457 -3.97119141 1.57250977 C-1.94810187 1.04905067 -1.94810187 1.04905067 0 0 Z " fill="#50788F" transform="translate(245,158)"/>
<path d="M0 0 C0.66 0.33 1.32 0.66 2 1 C1.67 1.66 1.34 2.32 1 3 C2.258125 2.79375 3.51625 2.5875 4.8125 2.375 C8.4014758 1.78664331 8.75073878 1.83382585 12 4 C8.54289448 5.00427892 5.08412303 6.0026944 1.625 7 C0.64015625 7.28617187 -0.3446875 7.57234375 -1.359375 7.8671875 C-2.30039063 8.13789063 -3.24140625 8.40859375 -4.2109375 8.6875 C-5.08024902 8.93886719 -5.94956055 9.19023437 -6.84521484 9.44921875 C-9 10 -9 10 -11 10 C-9.97912836 6.93738507 -9.47189851 5.94220597 -7 4 C-6.154375 3.835 -5.30875 3.67 -4.4375 3.5 C-1.64137117 3.2243063 -1.64137117 3.2243063 0 0 Z " fill="#387A96" transform="translate(218,120)"/>
<path d="M0 0 C0.66 0 1.32 0 2 0 C2.33 1.98 2.66 3.96 3 6 C-1.95 9.3 -6.9 12.6 -12 16 C-12.66 15.67 -13.32 15.34 -14 15 C-13.67 13.02 -13.34 11.04 -13 9 C-9.92382812 8.70703125 -9.92382812 8.70703125 -6.84765625 8.4140625 C-6.23792969 8.27742188 -5.62820313 8.14078125 -5 8 C-4.67 7.34 -4.34 6.68 -4 6 C-3.34 6 -2.68 6 -2 6 C-1.34 4.02 -0.68 2.04 0 0 Z " fill="#448596" transform="translate(351,265)"/>
<path d="M0 0 C0.51949219 0.38414062 1.03898438 0.76828125 1.57421875 1.1640625 C3.67415308 2.61577311 5.69021915 3.90974897 8 5 C10.74303573 4.58612501 10.74303573 4.58612501 13 3 C14.66666667 2.33333333 16.33333333 1.66666667 18 1 C17.67 2.32 17.34 3.64 17 5 C16.34 5 15.68 5 15 5 C14.67 5.99 14.34 6.98 14 8 C9.17308317 9.60897228 6.47374463 8.07117807 2 6 C1.01 6 0.02 6 -1 6 C-1.33 5.01 -1.66 4.02 -2 3 C-1.34 3 -0.68 3 0 3 C0 2.01 0 1.02 0 0 Z " fill="#406E8A" transform="translate(241,257)"/>
<path d="M0 0 C0.59296875 0.33386719 1.1859375 0.66773438 1.796875 1.01171875 C3.24604717 1.82979982 4.68646981 2.66334743 6.125 3.5 C3.44081667 4.84209166 2.00564523 4.13233676 -0.875 3.5 C-1.865 3.5 -2.855 3.5 -3.875 3.5 C-4.205 2.51 -4.535 1.52 -4.875 0.5 C-5.79023438 0.52320313 -6.70546875 0.54640625 -7.6484375 0.5703125 C-9.43121094 0.59738281 -9.43121094 0.59738281 -11.25 0.625 C-13.02503906 0.65980469 -13.02503906 0.65980469 -14.8359375 0.6953125 C-17.875 0.5 -17.875 0.5 -19.875 -1.5 C-12.04381133 -4.00598037 -7.42324756 -4.24185575 0 0 Z " fill="#54929E" transform="translate(258.875,138.5)"/>
<path d="M0 0 C7.13795017 0.15517283 11.47472854 3.74209463 17 8 C13.5736878 10.08325887 13.5736878 10.08325887 11.03515625 9.71484375 C6.39619945 7.88681919 3.23964006 5.94831133 0 2 C0 1.34 0 0.68 0 0 Z " fill="#40698D" transform="translate(209,286)"/>
<path d="M0 0 C3.12290635 0.48578543 5.99580359 0.9986012 9 2 C9 2.66 9 3.32 9 4 C11.76264289 4.59732819 14.16032769 5 17 5 C19.07277359 7.31193977 20.00978527 9.02935582 21 12 C20.01 12.495 20.01 12.495 19 13 C17.35180664 12.24316406 17.35180664 12.24316406 15.41015625 11.015625 C14.70826172 10.57476562 14.00636719 10.13390625 13.28320312 9.6796875 C12.55037109 9.20789063 11.81753906 8.73609375 11.0625 8.25 C9.96905273 7.56550781 9.96905273 7.56550781 8.85351562 6.8671875 C5.57515052 4.78778452 2.67670491 2.83603873 0 0 Z " fill="#436C8E" transform="translate(227,276)"/>
<path d="M0 0 C0.66 0 1.32 0 2 0 C2.33 1.32 2.66 2.64 3 4 C3.66 4 4.32 4 5 4 C6.75 6.25 6.75 6.25 8 9 C7.1875 11.3125 7.1875 11.3125 6 13 C1.75177626 12.52797514 -0.19989709 10.03344482 -3 7 C-1.125 2.25 -1.125 2.25 0 0 Z " fill="#207398" transform="translate(224,209)"/>
<path d="M0 0 C0.33 0.99 0.66 1.98 1 3 C0.21625 3.45375 -0.5675 3.9075 -1.375 4.375 C-4.03698031 5.88428742 -4.03698031 5.88428742 -6 8 C-7.67654729 7.72057545 -9.34259285 7.37668344 -11 7 C-12.9996441 6.96227087 -15.00054061 6.95350094 -17 7 C-17 6.67 -17 6.34 -17 6 C-15.35 6 -13.7 6 -12 6 C-13.06645115 4.70366379 -13.06645115 4.70366379 -15.5625 4.9375 C-16.366875 4.958125 -17.17125 4.97875 -18 5 C-14.89370844 3.31099986 -11.84794949 2.29373333 -8.4375 1.375 C-7.48746094 1.11460938 -6.53742188 0.85421875 -5.55859375 0.5859375 C-3 0 -3 0 0 0 Z " fill="#3F7F9D" transform="translate(189,111)"/>
<path d="M0 0 C0 0.66 0 1.32 0 2 C-0.75925781 2.19335938 -1.51851562 2.38671875 -2.30078125 2.5859375 C-3.29464844 2.84632812 -4.28851563 3.10671875 -5.3125 3.375 C-6.29863281 3.63023438 -7.28476563 3.88546875 -8.30078125 4.1484375 C-11.1805816 4.91913174 -11.1805816 4.91913174 -14 7 C-14.99 7 -15.98 7 -17 7 C-17.33 7.99 -17.66 8.98 -18 10 C-21.3 9.67 -24.6 9.34 -28 9 C-27 7 -27 7 -25.3293457 6.34570312 C-24.2633313 6.06629883 -24.2633313 6.06629883 -23.17578125 5.78125 C-22.39396484 5.57113281 -21.61214844 5.36101562 -20.80664062 5.14453125 C-19.98357422 4.93183594 -19.16050781 4.71914062 -18.3125 4.5 C-16.70404787 4.07434707 -15.09596638 3.64729076 -13.48828125 3.21875 C-12.71822754 3.01507813 -11.94817383 2.81140625 -11.15478516 2.6015625 C-9.28589286 2.07981419 -7.44219638 1.46937874 -5.60546875 0.84375 C-3 0 -3 0 0 0 Z " fill="#417E92" transform="translate(222,101)"/>
<path d="M0 0 C3.40039291 0.07017696 6.67762289 0.24320651 10 1 C12 3.5 12 3.5 13 6 C13.66 6.33 14.32 6.66 15 7 C15.33 6.34 15.66 5.68 16 5 C16 5.99 16 6.98 16 8 C18.475 8.495 18.475 8.495 21 9 C20.01 9.33 19.02 9.66 18 10 C17.67 10.66 17.34 11.32 17 12 C14.16302122 10.19315697 11.33105592 8.37860662 8.5 6.5625 C7.28376953 5.7880957 7.28376953 5.7880957 6.04296875 4.99804688 C5.27597656 4.50498047 4.50898438 4.01191406 3.71875 3.50390625 C3.00654297 3.04830322 2.29433594 2.5927002 1.56054688 2.12329102 C1.04556641 1.75260498 0.53058594 1.38191895 0 1 C0 0.67 0 0.34 0 0 Z " fill="#3D6188" transform="translate(208,311)"/>
<path d="M0 0 C0.66 0.33 1.32 0.66 2 1 C-0.03751441 5.27878027 -2.31600076 9.11282869 -5 13 C-5.66 12.67 -6.32 12.34 -7 12 C-7.33 12.33 -7.66 12.66 -8 13 C-9.99422795 13.36628677 -11.99453311 13.70131344 -14 14 C-10.33133644 9.4857225 -6.66465192 5.49848894 -2 2 C-1.34 2 -0.68 2 0 2 C0 1.34 0 0.68 0 0 Z " fill="#259395" transform="translate(324,147)"/>
<path d="M0 0 C-0.33 2.31 -0.66 4.62 -1 7 C-3.97 6.67 -6.94 6.34 -10 6 C-10.33 4.68 -10.66 3.36 -11 2 C-7.39759636 -1.60240364 -4.69302684 -0.93860537 0 0 Z " fill="#22558E" transform="translate(192,289)"/>
<path d="M0 0 C0.33 0 0.66 0 1 0 C1.33 11.22 1.66 22.44 2 34 C2.66 34 3.32 34 4 34 C4.33 35.98 4.66 37.96 5 40 C3.35 40 1.7 40 0 40 C0 26.8 0 13.6 0 0 Z " fill="#255088" transform="translate(147,232)"/>
<path d="M0 0 C-0.61875 0.0825 -1.2375 0.165 -1.875 0.25 C-4.18346804 0.78810733 -4.18346804 0.78810733 -5 3 C-6 5 -6 5 -7.609375 5.62109375 C-10.84351443 6.13369428 -13.97727051 6.09280305 -17.25 6.0625 C-18.51328125 6.05347656 -19.7765625 6.04445313 -21.078125 6.03515625 C-22.04234375 6.02355469 -23.0065625 6.01195313 -24 6 C-20.19716177 3.89061317 -16.12604889 2.62431446 -12 1.3125 C-11.2884375 1.07466797 -10.576875 0.83683594 -9.84375 0.59179688 C-6.12365591 -0.59155395 -3.72095731 -1.17566198 0 0 Z " fill="#29768C" transform="translate(246,95)"/>
<path d="M0 0 C4.95725232 0.52131717 8.28207993 2.85203212 12.3125 5.5625 C13.28026367 6.19961914 13.28026367 6.19961914 14.26757812 6.84960938 C15.84973954 7.89266393 17.42552501 8.94537872 19 10 C17.15234375 10.5859375 17.15234375 10.5859375 15 11 C13.30712215 10.04504326 11.64142963 9.0409066 10 8 C7.30745009 7.29329272 7.30745009 7.29329272 5 7 C5 6.34 5 5.68 5 5 C4.360625 4.731875 3.72125 4.46375 3.0625 4.1875 C1 3 1 3 0 0 Z " fill="#46708F" transform="translate(207,237)"/>
<path d="M0 0 C1.2375 0.185625 2.475 0.37125 3.75 0.5625 C6.76279577 0.94711223 9.10010827 1.0874594 12 0 C12.33 1.65 12.66 3.3 13 5 C10.64304648 6.48400777 9.31400019 7.01570001 6.5 6.875 C3.47183338 5.81514168 2.01885682 4.46749167 0 2 C0 1.34 0 0.68 0 0 Z " fill="#2B5B87" transform="translate(238,328)"/>
<path d="M0 0 C4.66666667 0 9.33333333 0 14 0 C12.84826645 2.46800047 11.95216435 4.04783565 10 6 C7.125 6.4375 7.125 6.4375 4 6 C0 1.89473684 0 1.89473684 0 0 Z " fill="#4A8993" transform="translate(269,168)"/>
<path d="M0 0 C4.42769017 1.47589672 8.6336865 3.73069841 12 7 C12 7.99 12 8.98 12 10 C10.35 9.67 8.7 9.34 7 9 C7 8.34 7 7.68 7 7 C6.01 7 5.02 7 4 7 C3.67 7.66 3.34 8.32 3 9 C1.35 9 -0.3 9 -2 9 C-1.34 8.01 -0.68 7.02 0 6 C0.99 6 1.98 6 3 6 C3 5.01 3 4.02 3 3 C2.01 2.67 1.02 2.34 0 2 C0 1.34 0 0.68 0 0 Z " fill="#3F678F" transform="translate(226,295)"/>
<path d="M0 0 C0.94875 0.04125 1.8975 0.0825 2.875 0.125 C2.545 0.785 2.215 1.445 1.875 2.125 C0.885 2.125 -0.105 2.125 -1.125 2.125 C-1.125 2.785 -1.125 3.445 -1.125 4.125 C-3.171875 5.6328125 -3.171875 5.6328125 -5.875 7.25 C-6.75671875 7.78882813 -7.6384375 8.32765625 -8.546875 8.8828125 C-11.125 10.125 -11.125 10.125 -15.125 10.125 C-15.455 9.465 -15.785 8.805 -16.125 8.125 C-14.805 8.125 -13.485 8.125 -12.125 8.125 C-11.795 6.805 -11.465 5.485 -11.125 4.125 C-9.145 4.125 -7.165 4.125 -5.125 4.125 C-5.125 3.465 -5.125 2.805 -5.125 2.125 C-3.125 0.125 -3.125 0.125 0 0 Z " fill="#4A7B93" transform="translate(287.125,264.875)"/>
<path d="M0 0 C-0.33 1.65 -0.66 3.3 -1 5 C-1.66 5 -2.32 5 -3 5 C-3 5.66 -3 6.32 -3 7 C-6 9 -6 9 -8.1875 8.625 C-8.785625 8.41875 -9.38375 8.2125 -10 8 C-10 7.01 -10 6.02 -10 5 C-9.34 5 -8.68 5 -8 5 C-7.87625 4.360625 -7.7525 3.72125 -7.625 3.0625 C-7.41875 2.381875 -7.2125 1.70125 -7 1 C-4.57333205 -0.21333397 -2.66500278 0 0 0 Z " fill="#367593" transform="translate(261,232)"/>
<path d="M0 0 C0 0.33 0 0.66 0 1 C-2.9164905 1.81313676 -5.83318369 2.6255335 -8.75 3.4375 C-9.575 3.66759766 -10.4 3.89769531 -11.25 4.13476562 C-12.44882813 4.46831055 -12.44882813 4.46831055 -13.671875 4.80859375 C-14.77160645 5.11494751 -14.77160645 5.11494751 -15.89355469 5.42749023 C-17.92294147 5.9790563 -19.95795396 6.49755982 -22 7 C-21 4 -21 4 -18.33984375 2.578125 C-11.70490646 -0.011862 -6.99707775 -1.78356884 0 0 Z " fill="#5C899E" transform="translate(207,130)"/>
<path d="M0 0 C3 1 6 2 9 3 C10.33106622 3.34227417 11.66400079 3.67751743 13 4 C12.67 4.99 12.34 5.98 12 7 C12.99 7 13.98 7 15 7 C15 7.66 15 8.32 15 9 C5.14516579 7.89013518 5.14516579 7.89013518 1.875 3.9375 C0 1 0 1 0 0 Z " fill="#1F518A" transform="translate(200,303)"/>
<path d="M0 0 C-1 3 -1 3 -3 4 C-5.54197964 4.3912935 -8.07391589 4.74479119 -10.625 5.0625 C-11.33140625 5.15337891 -12.0378125 5.24425781 -12.765625 5.33789062 C-14.5100041 5.56183119 -16.25495134 5.78133818 -18 6 C-18.33 5.34 -18.66 4.68 -19 4 C-16.58732675 3.132758 -14.17095531 2.28103064 -11.75 1.4375 C-11.06808594 1.19064453 -10.38617188 0.94378906 -9.68359375 0.68945312 C-3.41657839 -1.47053761 -3.41657839 -1.47053761 0 0 Z " fill="#517E96" transform="translate(222,144)"/>
<path d="M0 0 C0.99 0 1.98 0 3 0 C3 13.2 3 26.4 3 40 C2.67 40 2.34 40 2 40 C2 28.12 2 16.24 2 4 C0.68 3.34 -0.64 2.68 -2 2 C-1.34 1.34 -0.68 0.68 0 0 Z " fill="#54868B" transform="translate(352,168)"/>
<path d="M0 0 C7.50769231 0.61538462 7.50769231 0.61538462 10 2.5625 C10.33 3.036875 10.66 3.51125 11 4 C9.02 4 7.04 4 5 4 C5 4.66 5 5.32 5 6 C2.69 6.33 0.38 6.66 -2 7 C-2.33 6.01 -2.66 5.02 -3 4 C-2.01 3.67 -1.02 3.34 0 3 C0 2.01 0 1.02 0 0 Z " fill="#267A92" transform="translate(241,113)"/>
<path d="M0 0 C4.60976 1.31707429 8.18857342 3.07495169 12 6 C12.33 6.99 12.66 7.98 13 9 C10.36 9 7.72 9 5 9 C4.731875 8.21625 4.46375 7.4325 4.1875 6.625 C3.15185568 3.71885077 3.15185568 3.71885077 0 2 C0 1.34 0 0.68 0 0 Z " fill="#255182" transform="translate(188,271)"/>
<path d="M0 0 C2.875 0.25 2.875 0.25 6 1 C7.375 3.0625 7.375 3.0625 8 5 C9.98 4.67 11.96 4.34 14 4 C13.01 5.485 13.01 5.485 12 7 C9.2539049 7.13076643 6.72350533 7.14561316 4 7 C3.01 7 2.02 7 1 7 C1.20625 6.21625 1.4125 5.4325 1.625 4.625 C1.74875 3.75875 1.8725 2.8925 2 2 C1.34 1.34 0.68 0.68 0 0 Z " fill="#327991" transform="translate(241,208)"/>
<path d="M0 0 C1.65 0.33 3.3 0.66 5 1 C5.14368684 9.71700174 4.71961582 18.31320899 4 27 C3.67 27 3.34 27 3 27 C3.01047363 26.37432129 3.02094727 25.74864258 3.03173828 25.10400391 C3.07323191 22.2777099 3.09930473 19.45147989 3.125 16.625 C3.14175781 15.64015625 3.15851563 14.6553125 3.17578125 13.640625 C3.18222656 12.69960937 3.18867188 11.75859375 3.1953125 10.7890625 C3.20578613 9.91975098 3.21625977 9.05043945 3.22705078 8.15478516 C3.20595109 5.78654061 3.20595109 5.78654061 1 4 C0.01 4 -0.98 4 -2 4 C-1.34 2.68 -0.68 1.36 0 0 Z " fill="#319093" transform="translate(349,171)"/>
<path d="M0 0 C0.99 0.33 1.98 0.66 3 1 C0.20482229 3.87988007 -2.65445048 6.67564715 -5.625 9.375 C-6.19476563 9.89835938 -6.76453125 10.42171875 -7.3515625 10.9609375 C-7.89554687 11.30382812 -8.43953125 11.64671875 -9 12 C-9.99 11.67 -10.98 11.34 -12 11 C-11.67 9.68 -11.34 8.36 -11 7 C-10.01 7 -9.02 7 -8 7 C-8 6.34 -8 5.68 -8 5 C-5.34771188 3.92474806 -2.71631546 2.90543849 0 2 C0 1.34 0 0.68 0 0 Z " fill="#4F949A" transform="translate(333,168)"/>
<path d="M0 0 C0.99 0.33 1.98 0.66 3 1 C2.68289062 1.89847656 2.36578125 2.79695312 2.0390625 3.72265625 C0.47758776 9.18781783 0.53584192 14.79127847 0.375 20.4375 C0.33632812 21.55060547 0.29765625 22.66371094 0.2578125 23.81054688 C0.16409034 26.54020476 0.07837706 29.26986563 0 32 C-0.33 32 -0.66 32 -1 32 C-1.02465504 27.60343827 -1.04283842 23.2069128 -1.05493164 18.81030273 C-1.05997121 17.31355082 -1.06680287 15.81680384 -1.07543945 14.32006836 C-1.08752159 12.17300193 -1.09323191 10.02600038 -1.09765625 7.87890625 C-1.10289307 6.5854126 -1.10812988 5.29191895 -1.11352539 3.95922852 C-1 1 -1 1 0 0 Z " fill="#245270" transform="translate(187,153)"/>
<path d="M0 0 C0.66 0.33 1.32 0.66 2 1 C1.67 1.99 1.34 2.98 1 4 C0.01 4 -0.98 4 -2 4 C-2 4.66 -2 5.32 -2 6 C-2.928125 6.12375 -2.928125 6.12375 -3.875 6.25 C-6.18437567 6.81258459 -6.18437567 6.81258459 -7.25 9.0625 C-7.4975 9.701875 -7.745 10.34125 -8 11 C-9.32 11 -10.64 11 -12 11 C-12 10.01 -12 9.02 -12 8 C-9.62890625 6.2109375 -9.62890625 6.2109375 -6.5625 4.375 C-3.09234338 2.43951068 -3.09234338 2.43951068 0 0 Z " fill="#3B758C" transform="translate(284,287)"/>
<path d="M0 0 C1.134375 0.020625 2.26875 0.04125 3.4375 0.0625 C3.210625 0.825625 2.98375 1.58875 2.75 2.375 C2.646875 3.261875 2.54375 4.14875 2.4375 5.0625 C3.77128575 6.8979799 3.77128575 6.8979799 5.4375 8.0625 C4.4475 8.5575 4.4475 8.5575 3.4375 9.0625 C-3.16326775 5.93582054 -3.16326775 5.93582054 -4.5625 2.875 C-4.5625 -0.53407007 -3.44672018 0.06046878 0 0 Z " fill="#356F8A" transform="translate(245.5625,233.9375)"/>
<path d="M0 0 C0.66 0.33 1.32 0.66 2 1 C0.35 2.98 -1.3 4.96 -3 7 C-2.34 7 -1.68 7 -1 7 C-2.47692308 11.67692308 -2.47692308 11.67692308 -5.125 13.3125 C-6.053125 13.6528125 -6.053125 13.6528125 -7 14 C-6.67 12.35 -6.34 10.7 -6 9 C-6.66 9 -7.32 9 -8 9 C-8 8.34 -8 7.68 -8 7 C-2.52380952 2 -2.52380952 2 0 2 C0 1.34 0 0.68 0 0 Z " fill="#249E9C" transform="translate(334,138)"/>
<path d="M0 0 C0.99 0.33 1.98 0.66 3 1 C1.35 1.66 -0.3 2.32 -2 3 C-2 3.66 -2 4.32 -2 5 C-3.98 5.66 -5.96 6.32 -8 7 C-8 7.66 -8 8.32 -8 9 C-9.32 9.33 -10.64 9.66 -12 10 C-12 8.68 -12 7.36 -12 6 C-8.5647952 3.70986347 -7.014669 3.82157027 -3 4 C-2.67 3.01 -2.34 2.02 -2 1 C-1.34 0.67 -0.68 0.34 0 0 Z " fill="#517D96" transform="translate(301,303)"/>
<path d="M0 0 C2.00720923 0.28674418 4.0085944 0.61866701 6 1 C6.33 1.99 6.66 2.98 7 4 C7.99 4.33 8.98 4.66 10 5 C10 5.66 10 6.32 10 7 C3.62575453 7.17706237 3.62575453 7.17706237 1 6 C-0.25 3.4375 -0.25 3.4375 -1 1 C-0.67 0.67 -0.34 0.34 0 0 Z " fill="#2A5587" transform="translate(177,265)"/>
<path d="M0 0 C3 0.1875 3 0.1875 5 1.1875 C5 2.5075 5 3.8275 5 5.1875 C4.34 5.1875 3.68 5.1875 3 5.1875 C3 4.5275 3 3.8675 3 3.1875 C1.68 2.5275 0.36 1.8675 -1 1.1875 C-0.67 2.1775 -0.34 3.1675 0 4.1875 C-1.3125 5.6875 -1.3125 5.6875 -3 7.1875 C-3.99 7.1875 -4.98 7.1875 -6 7.1875 C-4.91362126 0.30710133 -4.91362126 0.30710133 0 0 Z " fill="#257192" transform="translate(235,201.8125)"/>
<path d="M0 0 C1.98 0 3.96 0 6 0 C3.15820812 2.32510245 0.27173401 4.57700599 -2.6875 6.75 C-3.26886719 7.17796875 -3.85023438 7.6059375 -4.44921875 8.046875 C-6 9 -6 9 -8 9 C-7.9375 6.6875 -7.9375 6.6875 -7 4 C-3.4375 2.1875 -3.4375 2.1875 0 1 C0 0.67 0 0.34 0 0 Z " fill="#45758E" transform="translate(267,276)"/>
<path d="M0 0 C0.66 0.33 1.32 0.66 2 1 C2 1.99 2 2.98 2 4 C1.01 4.33 0.02 4.66 -1 5 C-1 5.66 -1 6.32 -1 7 C-4.6208201 8.01382963 -8.27811418 8.49897691 -12 9 C-10.67246621 6.34493241 -9.17141061 5.86915629 -6.5625 4.5 C-3.95712077 3.12830757 -2.09139575 2.09139575 0 0 Z " fill="#4B8294" transform="translate(309,271)"/>
<path d="M0 0 C1.3125 2.6875 1.3125 2.6875 2 5 C-2.97209562 3.23570801 -7.43438061 0.6060834 -12 -2 C-12 -2.33 -12 -2.66 -12 -3 C-6.71836722 -4.25091303 -4.44674338 -3.11272036 0 0 Z " fill="#4D8F9D" transform="translate(269,167)"/>
<path d="M0 0 C0 3.40037669 -0.48956196 3.9768533 -2.5 6.5625 C-4.54082136 8.99754004 -4.54082136 8.99754004 -5 12 C-5.99 12.33 -6.98 12.66 -8 13 C-8.33 12.01 -8.66 11.02 -9 10 C-9.99 9.67 -10.98 9.34 -12 9 C-11.319375 8.62875 -10.63875 8.2575 -9.9375 7.875 C-6.31930991 5.56551696 -3.19966425 2.84926874 0 0 Z " fill="#55969E" transform="translate(286,138)"/>
<path d="M0 0 C2.97 0.33 5.94 0.66 9 1 C9.99 3.31 10.98 5.62 12 8 C7.44328408 6.48109469 3.68276708 4.04597738 0 1 C0 0.67 0 0.34 0 0 Z " fill="#4E6E90" transform="translate(227,323)"/>
<path d="M0 0 C5.70709064 0.46588495 9.15939723 1.93757784 14 5 C12.25 6.125 12.25 6.125 10 7 C8.125 6.375 8.125 6.375 6 5 C4.9275 4.319375 3.855 3.63875 2.75 2.9375 C1.8425 2.298125 0.935 1.65875 0 1 C0 0.67 0 0.34 0 0 Z " fill="#486B8E" transform="translate(184,295)"/>
<path d="M0 0 C1.32 0.33 2.64 0.66 4 1 C3.67 1.99 3.34 2.98 3 4 C3.66 4 4.32 4 5 4 C5.66 5.65 6.32 7.3 7 9 C2.25 7.125 2.25 7.125 0 6 C0 5.34 0 4.68 0 4 C-1.32 3.67 -2.64 3.34 -4 3 C-3.34 2.67 -2.68 2.34 -2 2 C-1.34 2.33 -0.68 2.66 0 3 C0 2.01 0 1.02 0 0 Z " fill="#527796" transform="translate(220,267)"/>
<path d="M0 0 C-1.26886964 1.12721436 -2.54017562 2.25168658 -3.8125 3.375 C-4.52019531 4.00148437 -5.22789062 4.62796875 -5.95703125 5.2734375 C-8 7 -8 7 -11 9 C-11 7.35 -11 5.7 -11 4 C-10.34 4 -9.68 4 -9 4 C-9 3.01 -9 2.02 -9 1 C-5.47051709 -0.66670026 -3.71727674 -1.13583456 0 0 Z " fill="#54899A" transform="translate(280,219)"/>
<path d="M0 0 C0.33 0.66 0.66 1.32 1 2 C1.99 2.33 2.98 2.66 4 3 C0.7 5.97 -2.6 8.94 -6 12 C-6.33 11.01 -6.66 10.02 -7 9 C-6.67 8.34 -6.34 7.68 -6 7 C-5.34 7 -4.68 7 -4 7 C-4 6.34 -4 5.68 -4 5 C-3.34 4.67 -2.68 4.34 -2 4 C-0.86649466 1.98330173 -0.86649466 1.98330173 0 0 Z " fill="#55969F" transform="translate(293,155)"/>
<path d="M0 0 C1.09658936 3.28976808 0.79953138 4.71303767 0 8 C-2.64 8.33 -5.28 8.66 -8 9 C-7.34 7.68 -6.68 6.36 -6 5 C-5.34 5 -4.68 5 -4 5 C-3.67 4.01 -3.34 3.02 -3 2 C-2.01 1.34 -1.02 0.68 0 0 Z " fill="#2C9996" transform="translate(339,136)"/>
<path d="M0 0 C0.99 0 1.98 0 3 0 C3 0.66 3 1.32 3 2 C4.423125 2.2165625 4.423125 2.2165625 5.875 2.4375 C9 3 9 3 11 4 C11 5.32 11 6.64 11 8 C6.89160936 6.54997977 3.49655387 4.6020866 0 2 C0 1.34 0 0.68 0 0 Z " fill="#4D6D90" transform="translate(170,285)"/>
<path d="M0 0 C2.64 0 5.28 0 8 0 C8.33 0.66 8.66 1.32 9 2 C11.02463255 2.65213292 11.02463255 2.65213292 13 3 C13.33 4.32 13.66 5.64 14 7 C4.22210581 3.99633316 4.22210581 3.99633316 0 1 C0 0.67 0 0.34 0 0 Z " fill="#5D9FA6" transform="translate(271,127)"/>
<path d="M0 0 C1.11375 0.3403125 1.11375 0.3403125 2.25 0.6875 C-1.5435871 3.90630117 -5.40829477 6.3038187 -9.75 8.6875 C-9.42 7.3675 -9.09 6.0475 -8.75 4.6875 C-8.09 4.6875 -7.43 4.6875 -6.75 4.6875 C-6.75 4.0275 -6.75 3.3675 -6.75 2.6875 C-4.35939287 0.29689287 -3.42334736 -0.38901675 0 0 Z " fill="#4F8697" transform="translate(335.75,280.3125)"/>
<path d="M0 0 C0.66 0 1.32 0 2 0 C2 0.99 2 1.98 2 3 C2.66 3 3.32 3 4 3 C2.84826645 5.46800047 1.95216435 7.04783565 0 9 C-0.99 9 -1.98 9 -3 9 C-2.30058404 5.85262818 -1.23921302 2.97411124 0 0 Z " fill="#368191" transform="translate(299,193)"/>
<path d="M0 0 C0.81210937 0.29003906 1.62421875 0.58007812 2.4609375 0.87890625 C3.27820313 1.16636719 4.09546875 1.45382813 4.9375 1.75 C5.56398438 1.97816406 6.19046875 2.20632812 6.8359375 2.44140625 C5.8459375 3.10140625 4.8559375 3.76140625 3.8359375 4.44140625 C3.8359375 3.78140625 3.8359375 3.12140625 3.8359375 2.44140625 C3.0934375 2.93640625 2.3509375 3.43140625 1.5859375 3.94140625 C-1.1640625 5.44140625 -1.1640625 5.44140625 -5.1640625 5.44140625 C-4.7890625 3.00390625 -4.7890625 3.00390625 -4.1640625 0.44140625 C-2.1640625 -0.55859375 -2.1640625 -0.55859375 0 0 Z " fill="#4BA9A9" transform="translate(294.1640625,112.55859375)"/>
<path d="M0 0 C-0.99 0.33 -1.98 0.66 -3 1 C-3.33 1.99 -3.66 2.98 -4 4 C-7.01324195 5.50662097 -9.68286377 5.17770373 -13 5 C-13.66 4.34 -14.32 3.68 -15 3 C-13.44033782 2.491217 -11.87710759 1.99336531 -10.3125 1.5 C-9.44238281 1.2215625 -8.57226562 0.943125 -7.67578125 0.65625 C-5.00608323 0.00149195 -2.73603316 -0.11831495 0 0 Z " fill="#326A85" transform="translate(189,133)"/>
<path d="M0 0 C1.98 0 3.96 0 6 0 C6 0.66 6 1.32 6 2 C1.52941176 6 1.52941176 6 -1 6 C-1 6.66 -1 7.32 -1 8 C-1.66 8 -2.32 8 -3 8 C-2.67 6.35 -2.34 4.7 -2 3 C-1.34 3 -0.68 3 0 3 C0 2.01 0 1.02 0 0 Z " fill="#4B9C9C" transform="translate(339,160)"/>
<path d="M0 0 C0.33 0.66 0.66 1.32 1 2 C0.34 2.66 -0.32 3.32 -1 4 C-3.01151705 3.77289324 -5.02344239 3.53928901 -7.0234375 3.2265625 C-9.23674688 2.97286301 -10.91417653 3.2178162 -13 4 C-9.09650503 -0.27525639 -5.61326496 -0.10591066 0 0 Z " fill="#248098" transform="translate(236,100)"/>
<path d="M0 0 C2.76223278 2.76223278 2.57856291 5.20706617 3 9 C0.03 8.505 0.03 8.505 -3 8 C-2.25 2.25 -2.25 2.25 0 0 Z " fill="#2A6C8D" transform="translate(238,224)"/>
<path d="M0 0 C0 2.62113708 -0.31292445 4.50935112 -1 7 C0.32 7.99 1.64 8.98 3 10 C2.67 10.99 2.34 11.98 2 13 C0.02 11.35 -1.96 9.7 -4 8 C-3.50168276 4.31245243 -2.89932357 2.39509338 0 0 Z " fill="#658B9F" transform="translate(223,209)"/>
<path d="M0 0 C-2.88628401 1.57554035 -5.53342384 2.46276373 -8.75 3.125 C-9.54921875 3.29257813 -10.3484375 3.46015625 -11.171875 3.6328125 C-11.77515625 3.75398438 -12.3784375 3.87515625 -13 4 C-13 3.01 -13 2.02 -13 1 C-8.20862412 -0.6290678 -4.94367454 -1.20577428 0 0 Z " fill="#538097" transform="translate(230,123)"/>
<path d="M0 0 C0.66 0 1.32 0 2 0 C2.33 1.65 2.66 3.3 3 5 C2.34 5 1.68 5 1 5 C0.67 6.32 0.34 7.64 0 9 C-0.99 8.34 -1.98 7.68 -3 7 C-1.125 2.25 -1.125 2.25 0 0 Z " fill="#226C8E" transform="translate(224,209)"/>
<path d="M0 0 C0 0.66 0 1.32 0 2 C0.66 2.33 1.32 2.66 2 3 C-0.64 5.31 -3.28 7.62 -6 10 C-6.33 9.01 -6.66 8.02 -7 7 C-6.34 7 -5.68 7 -5 7 C-5 5.68 -5 4.36 -5 3 C-2.64285714 0 -2.64285714 0 0 0 Z " fill="#528C9C" transform="translate(296,200)"/>
<path d="M0 0 C0.33 0.66 0.66 1.32 1 2 C0.01 3.485 0.01 3.485 -1 5 C-1.66 5 -2.32 5 -3 5 C-3 5.66 -3 6.32 -3 7 C-3.66 7 -4.32 7 -5 7 C-5 7.66 -5 8.32 -5 9 C-6.65 9.33 -8.3 9.66 -10 10 C-9.04882866 8.8274869 -8.08882991 7.66212985 -7.125 6.5 C-6.32449219 5.52546875 -6.32449219 5.52546875 -5.5078125 4.53125 C-5.01023437 4.0259375 -4.51265625 3.520625 -4 3 C-3.34 3 -2.68 3 -2 3 C-2 2.34 -2 1.68 -2 1 C-1.34 0.67 -0.68 0.34 0 0 Z " fill="#6AA9A8" transform="translate(353,122)"/>
<path d="M0 0 C-2.19909405 2.19909405 -4.56070254 4.07423885 -7 6 C-8.32 5.34 -9.64 4.68 -11 4 C-11 3.34 -11 2.68 -11 2 C-7.17679443 0.57741188 -4.08718695 -0.24042276 0 0 Z " fill="#217A99" transform="translate(216,106)"/>
<path d="M0 0 C1.32 0.66 2.64 1.32 4 2 C4.33 1.34 4.66 0.68 5 0 C5 0.99 5 1.98 5 3 C6.65 3.33 8.3 3.66 10 4 C9.01 4.33 8.02 4.66 7 5 C6.67 5.66 6.34 6.32 6 7 C3.36 5.35 0.72 3.7 -2 2 C-1.34 1.34 -0.68 0.68 0 0 Z " fill="#4A6E91" transform="translate(219,316)"/>
<path d="M0 0 C0 0.99 0 1.98 0 3 C-1.32 3 -2.64 3 -4 3 C-4.33 3.99 -4.66 4.98 -5 6 C-5.66 6 -6.32 6 -7 6 C-7 6.66 -7 7.32 -7 8 C-8.32 7.34 -9.64 6.68 -11 6 C-9.54550599 4.9944239 -8.08627557 3.99569565 -6.625 3 C-5.40683594 2.1646875 -5.40683594 2.1646875 -4.1640625 1.3125 C-2 0 -2 0 0 0 Z " fill="#588C9B" transform="translate(331,258)"/>
<path d="M0 0 C1 3 1 3 0 5.125 C-2.79247824 7.74294835 -5.2678131 7.71832552 -9 8 C-7.71034824 6.62437146 -6.37310707 5.29233607 -5 4 C-4.34 4 -3.68 4 -3 4 C-3 3.34 -3 2.68 -3 2 C-2.01 1.34 -1.02 0.68 0 0 Z " fill="#5F92A3" transform="translate(258,205)"/>
<path d="M0 0 C-2.88087546 2.40072955 -5.56404834 4.47291037 -9 6 C-9.33 5.34 -9.66 4.68 -10 4 C-7.16124653 -0.25813021 -4.8137938 -0.13010254 0 0 Z " fill="#537C97" transform="translate(289,313)"/>
<path d="M0 0 C1.32 0.66 2.64 1.32 4 2 C2.73760288 2.86658615 1.46472499 3.71792059 0.1875 4.5625 C-0.87404297 5.27599609 -0.87404297 5.27599609 -1.95703125 6.00390625 C-4 7 -4 7 -7 6 C-6 4 -6 4 -3 3 C-1.33289654 1.50014391 -1.33289654 1.50014391 0 0 Z " fill="#487C8E" transform="translate(322,288)"/>
<path d="M0 0 C1.65 0 3.3 0 5 0 C5 0.99 5 1.98 5 3 C7.97 3.495 7.97 3.495 11 4 C11 4.99 11 5.98 11 7 C6.89188572 5.55007731 3.53144334 3.54592427 0 1 C0 0.67 0 0.34 0 0 Z " fill="#63869E" transform="translate(193,254)"/>
<path d="M0 0 C2.5 1.1875 2.5 1.1875 5 3 C5.3125 5.6875 5.3125 5.6875 5 8 C3.68 7.67 2.36 7.34 1 7 C1 6.34 1 5.68 1 5 C0.34 4.67 -0.32 4.34 -1 4 C-0.67 2.68 -0.34 1.36 0 0 Z " fill="#2F578B" transform="translate(166,255)"/>
<path d="M0 0 C0.33 0.99 0.66 1.98 1 3 C-1.06756277 5.7972908 -2.14440371 6.02692273 -5.6875 6.6875 C-6.780625 6.790625 -7.87375 6.89375 -9 7 C-8.67 6.34 -8.34 5.68 -8 5 C-7.01 5 -6.02 5 -5 5 C-5 4.34 -5 3.68 -5 3 C-2.5 1.375 -2.5 1.375 0 0 Z " fill="#5D8E9F" transform="translate(283,241)"/>
<path d="M0 0 C3.625 0.375 3.625 0.375 7 1 C7.33 2.65 7.66 4.3 8 6 C3 4 3 4 -2 2 C-1.34 1.34 -0.68 0.68 0 0 Z " fill="#549B9E" transform="translate(262,121)"/>
<path d="M0 0 C0 0.99 0 1.98 0 3 C-6.435 3.495 -6.435 3.495 -13 4 C-8.67446503 1.83723252 -4.87899892 0 0 0 Z " fill="#5C919D" transform="translate(235,97)"/>
<path d="M0 0 C0.66 0 1.32 0 2 0 C2.185625 1.2065625 2.185625 1.2065625 2.375 2.4375 C2.58125 3.283125 2.7875 4.12875 3 5 C3.66 5.33 4.32 5.66 5 6 C4.67 6.66 4.34 7.32 4 8 C2.0625 7.3125 2.0625 7.3125 0 6 C-0.8125 3.4375 -0.8125 3.4375 -1 1 C-0.67 0.67 -0.34 0.34 0 0 Z " fill="#215C86" transform="translate(247,282)"/>
<path d="M0 0 C0.99 0 1.98 0 3 0 C3 1.32 3 2.64 3 4 C0.03 5.65 -2.94 7.3 -6 9 C-5.67 7.68 -5.34 6.36 -5 5 C-3.35 4.67 -1.7 4.34 0 4 C0 2.68 0 1.36 0 0 Z " fill="#5D8B9A" transform="translate(312,246)"/>
<path d="M0 0 C0.66 1.32 1.32 2.64 2 4 C1.54625 4.433125 1.0925 4.86625 0.625 5.3125 C-1.20024334 7.10798342 -1.20024334 7.10798342 -3 10 C-3.33 7.69 -3.66 5.38 -4 3 C-2.68 2.01 -1.36 1.02 0 0 Z " fill="#448A9B" transform="translate(297,217)"/>
<path d="M0 0 C3.465 1.98 3.465 1.98 7 4 C5.375 5.1875 5.375 5.1875 3 6 C-0.25 4.625 -0.25 4.625 -3 3 C-2.01 2.01 -1.02 1.02 0 0 Z " fill="#498C9D" transform="translate(252,158)"/>
<path d="M0 0 C0.33 0.99 0.66 1.98 1 3 C-2.01868434 4.50934217 -4.67297229 4.17510672 -8 4 C-8.99 3.34 -9.98 2.68 -11 2 C-3.375 0 -3.375 0 0 0 Z " fill="#568CA0" transform="translate(189,111)"/>
<path d="M0 0 C1.32 0.66 2.64 1.32 4 2 C3.25 3.9375 3.25 3.9375 2 6 C-0.125 6.75 -0.125 6.75 -2 7 C-1.67 6.01 -1.34 5.02 -1 4 C-1.99 3.67 -2.98 3.34 -4 3 C-2.68 2.01 -1.36 1.02 0 0 Z " fill="#43829D" transform="translate(295,280)"/>
<path d="M0 0 C0.66 0.33 1.32 0.66 2 1 C1.67 1.99 1.34 2.98 1 4 C0.34 4 -0.32 4 -1 4 C-1.33 4.99 -1.66 5.98 -2 7 C-2.66 7 -3.32 7 -4 7 C-4 6.34 -4 5.68 -4 5 C-4.66 4.67 -5.32 4.34 -6 4 C-4.02 2.68 -2.04 1.36 0 0 Z " fill="#53819E" transform="translate(257,258)"/>
<path d="M0 0 C0.66 0.33 1.32 0.66 2 1 C2 4 2 4 1 6 C-0.98 6 -2.96 6 -5 6 C-3.625 4 -3.625 4 -2 2 C-1.34 2 -0.68 2 0 2 C0 1.34 0 0.68 0 0 Z " fill="#5A93A1" transform="translate(270,194)"/>
<path d="M0 0 C0.66 0 1.32 0 2 0 C1.67 0.99 1.34 1.98 1 3 C0.34 3 -0.32 3 -1 3 C-1 4.32 -1 5.64 -1 7 C-2.98 7.33 -4.96 7.66 -7 8 C-6.02133662 6.85373678 -5.04205413 5.70800212 -4.0625 4.5625 C-3.51722656 3.92441406 -2.97195313 3.28632813 -2.41015625 2.62890625 C-1.63204305 1.73008851 -0.84063472 0.84063472 0 0 Z " fill="#63A7A8" transform="translate(317,153)"/>
<path d="M0 0 C9.41002278 -0.3690205 9.41002278 -0.3690205 14 2 C14 2.99 14 3.98 14 5 C13.175 4.71125 12.35 4.4225 11.5 4.125 C7.69204819 2.90101549 3.88729173 1.9383118 0 1 C0 0.67 0 0.34 0 0 Z " fill="#69A6AB" transform="translate(246,117)"/>
<path d="M0 0 C0 0.66 0 1.32 0 2 C-4.50353262 3.75747614 -8.17639811 4.19294408 -13 4 C-8.84541088 1.76291355 -4.76123067 0 0 0 Z " fill="#578D9A" transform="translate(222,101)"/>
<path d="M0 0 C5.75 1.625 5.75 1.625 8 5 C6.25 5.6875 6.25 5.6875 4 6 C1.75 4.75 1.75 4.75 0 3 C0 2.01 0 1.02 0 0 Z " fill="#456B89" transform="translate(187,248)"/>
<path d="M0 0 C1.48280196 0.78483659 2.9611498 1.57809334 4.4375 2.375 C5.67306641 3.03628906 5.67306641 3.03628906 6.93359375 3.7109375 C9 5 9 5 10 7 C7.125 6.75 7.125 6.75 4 6 C2.625 3.9375 2.625 3.9375 2 2 C1.34 2 0.68 2 0 2 C0 1.34 0 0.68 0 0 Z " fill="#7993A7" transform="translate(216,241)"/>
<path d="M0 0 C0.66 0 1.32 0 2 0 C0.50902342 3.7952131 -1.75700849 5.61042731 -5 8 C-5 6.35 -5 4.7 -5 3 C-3.35 2.67 -1.7 2.34 0 2 C0 1.34 0 0.68 0 0 Z " fill="#508A9E" transform="translate(266,227)"/>
<path d="M0 0 C2.16874252 0.50603992 3.99967627 0.99983813 6 2 C5.67 2.66 5.34 3.32 5 4 C3.63875 3.938125 3.63875 3.938125 2.25 3.875 C-0.8782046 3.99531556 -2.38614006 4.3914708 -5 6 C-3.35 4.02 -1.7 2.04 0 0 Z " fill="#7195A9" transform="translate(233,199)"/>
<path d="M0 0 C0.99 0.33 1.98 0.66 3 1 C1.515 3.475 1.515 3.475 0 6 C-1.32 5.67 -2.64 5.34 -4 5 C-2.68 3.35 -1.36 1.7 0 0 Z " fill="#4E919B" transform="translate(292,175)"/>
<path d="M0 0 C0.33 0.66 0.66 1.32 1 2 C0.34 2 -0.32 2 -1 2 C-1.20625 2.639375 -1.4125 3.27875 -1.625 3.9375 C-3 6 -3 6 -6.125 6.75 C-7.548125 6.87375 -7.548125 6.87375 -9 7 C-6.19195732 4.03595495 -3.81684226 1.55500981 0 0 Z " fill="#4CA19E" transform="translate(345,131)"/>
<path d="M0 0 C-0.33 0.99 -0.66 1.98 -1 3 C-1.66 3 -2.32 3 -3 3 C-3.33 4.32 -3.66 5.64 -4 7 C-6 4 -6 4 -7 1 C-4 0 -4 0 0 0 Z " fill="#3B6F8F" transform="translate(153,122)"/>
<path d="M0 0 C-3.18762365 2.12508244 -5.26512223 2.5020163 -9 3 C-9 2.01 -9 1.02 -9 0 C-5.52176885 -1.15941038 -3.54104422 -0.70820884 0 0 Z " fill="#4F8493" transform="translate(239,120)"/>
<path d="M0 0 C-0.99 0 -1.98 0 -3 0 C-3 0.66 -3 1.32 -3 2 C-5.31 2.33 -7.62 2.66 -10 3 C-10.33 2.01 -10.66 1.02 -11 0 C-3.57142857 -1.28571429 -3.57142857 -1.28571429 0 0 Z " fill="#4A8193" transform="translate(249,117)"/>
<path d="M0 0 C4.41889613 1.35021826 6.34345343 3.26115668 9 7 C8.01 7.495 8.01 7.495 7 8 C3.75700849 5.61042731 1.49097658 3.7952131 0 0 Z " fill="#335582" transform="translate(200,303)"/>
<path d="M0 0 C0.66 0.33 1.32 0.66 2 1 C1.67 1.99 1.34 2.98 1 4 C0.01 4 -0.98 4 -2 4 C-2 4.66 -2 5.32 -2 6 C-2.99 6.33 -3.98 6.66 -5 7 C-5.66 6.34 -6.32 5.68 -7 5 C-4.69 3.35 -2.38 1.7 0 0 Z " fill="#6793A9" transform="translate(284,287)"/>
<path d="M0 0 C3.12290635 0.48578543 5.99580359 0.9986012 9 2 C9.33 2.99 9.66 3.98 10 5 C5.59885603 4.49701212 3.28804981 2.91227269 0 0 Z " fill="#507491" transform="translate(227,276)"/>
<path d="M0 0 C0 1.98 0 3.96 0 6 C-4.875 4.25 -4.875 4.25 -6 2 C-1.125 0 -1.125 0 0 0 Z " fill="#45658E" transform="translate(164,276)"/>
<path d="M0 0 C0.66 0 1.32 0 2 0 C2.33 1.98 2.66 3.96 3 6 C1.35 6.33 -0.3 6.66 -2 7 C-1.42415568 4.61435923 -0.77772405 2.33317216 0 0 Z " fill="#3A8092" transform="translate(351,265)"/>
<path d="M0 0 C1.98 0.99 1.98 0.99 4 2 C4 2.66 4 3.32 4 4 C4.99 4.33 5.98 4.66 7 5 C6.67 5.66 6.34 6.32 6 7 C3.5625 6.3125 3.5625 6.3125 1 5 C0.1875 2.375 0.1875 2.375 0 0 Z " fill="#496F93" transform="translate(204,258)"/>
<path d="M0 0 C2.31 0 4.62 0 7 0 C6.6875 1.9375 6.6875 1.9375 6 4 C5.01 4.33 4.02 4.66 3 5 C2.01 3.35 1.02 1.7 0 0 Z " fill="#2D8391" transform="translate(269,168)"/>
<path d="M0 0 C0.33 0 0.66 0 1 0 C1 1.65 1 3.3 1 5 C0.34 5 -0.32 5 -1 5 C-1 5.66 -1 6.32 -1 7 C-2.98 7.99 -2.98 7.99 -5 9 C-5.33 7.68 -5.66 6.36 -6 5 C-4.68 5 -3.36 5 -2 5 C-1.855625 4.360625 -1.71125 3.72125 -1.5625 3.0625 C-1 1 -1 1 0 0 Z " fill="#5EA4A1" transform="translate(354,148)"/>
<path d="M0 0 C3.3 0 6.6 0 10 0 C8.515 1.485 8.515 1.485 7 3 C3.65807308 2.75546876 2.39456443 2.39456443 0 0 Z " fill="#607792" transform="translate(245,335)"/>
<path d="M0 0 C0.66 0.33 1.32 0.66 2 1 C0.68 2.65 -0.64 4.3 -2 6 C-3.98 5.34 -5.96 4.68 -8 4 C-7.67 3.34 -7.34 2.68 -7 2 C-5.00714063 1.62633887 -3.00636471 1.29259485 -1 1 C-0.67 0.67 -0.34 0.34 0 0 Z " fill="#678DA8" transform="translate(255,306)"/>
<path d="M0 0 C-2.42130331 2.42130331 -3.80111377 2.52840504 -7.125 3.125 C-8.49011719 3.37636719 -8.49011719 3.37636719 -9.8828125 3.6328125 C-10.58148438 3.75398437 -11.28015625 3.87515625 -12 4 C-10 1 -10 1 -8.25 0.3125 C-5.48083033 -0.0721069 -2.79197653 -0.06345401 0 0 Z " fill="#63869A" transform="translate(226,166)"/>
<path d="M0 0 C3.26954202 0.56371414 4.82575883 1.49962266 7 4 C6.01 4.495 6.01 4.495 5 5 C2.375 4.0625 2.375 4.0625 0 3 C0 2.01 0 1.02 0 0 Z " fill="#4D7494" transform="translate(239,304)"/>
<path d="M0 0 C-0.33 1.32 -0.66 2.64 -1 4 C-1.99 4 -2.98 4 -4 4 C-4 3.34 -4 2.68 -4 2 C-4.66 2 -5.32 2 -6 2 C-6 1.34 -6 0.68 -6 0 C-3.50907189 -1.24546405 -2.58919267 -0.7767578 0 0 Z " fill="#1F5B8D" transform="translate(240,276)"/>
<path d="M0 0 C1.4540625 0.0309375 1.4540625 0.0309375 2.9375 0.0625 C0.24908141 2.31495881 -1.70891875 3.94463958 -5.0625 5.0625 C-3.9375 0.08035714 -3.9375 0.08035714 0 0 Z " fill="#5A8D9C" transform="translate(303.0625,254.9375)"/>
<path d="M0 0 C2 2 2 2 2 4 C3.9600281 5.63676257 3.9600281 5.63676257 6 7 C3.03 6.505 3.03 6.505 0 6 C0 5.01 0 4.02 0 3 C-1.65 3 -3.3 3 -5 3 C-4.360625 2.690625 -3.72125 2.38125 -3.0625 2.0625 C-1.06389179 1.1654837 -1.06389179 1.1654837 0 0 Z " fill="#235784" transform="translate(198,251)"/>
<path d="M0 0 C1.32 0.66 2.64 1.32 4 2 C2.25 3.5625 2.25 3.5625 0 5 C-2.25 4.6875 -2.25 4.6875 -4 4 C-2.68 2.68 -1.36 1.36 0 0 Z " fill="#5AA1A3" transform="translate(345,174)"/>
<path d="M0 0 C0.99 0 1.98 0 3 0 C3 2.97 3 5.94 3 9 C2.67 9 2.34 9 2 9 C2 7.35 2 5.7 2 4 C0.68 3.34 -0.64 2.68 -2 2 C-1.34 1.34 -0.68 0.68 0 0 Z " fill="#699A9C" transform="translate(352,168)"/>
<path d="M0 0 C3.68754757 0.49831724 5.60490662 1.10067643 8 4 C6.68 4.33 5.36 4.66 4 5 C4 4.34 4 3.68 4 3 C2.68 2.67 1.36 2.34 0 2 C0 1.34 0 0.68 0 0 Z " fill="#287F88" transform="translate(260,142)"/>
<path d="M0 0 C0.66 0.33 1.32 0.66 2 1 C1.09515208 2.15518918 0.1755794 3.29885406 -0.75 4.4375 C-1.26046875 5.07558594 -1.7709375 5.71367187 -2.296875 6.37109375 C-4.19667629 8.18810554 -5.43586908 8.60423197 -8 9 C-8 8.34 -8 7.68 -8 7 C-2.52380952 2 -2.52380952 2 0 2 C0 1.34 0 0.68 0 0 Z " fill="#83B5B7" transform="translate(334,138)"/>
<path d="M0 0 C-2.91708924 1.98362069 -4.12380904 1.9876191 -7.75 1.625 C-8.8225 1.41875 -9.895 1.2125 -11 1 C-6.8204355 -1.78637633 -4.85331323 -0.79562512 0 0 Z " fill="#488498" transform="translate(250,137)"/>
<path d="M0 0 C2.72869407 0.03287583 5.2966618 0.56397771 8 1 C4.55549263 3.29633824 2.06187717 3.54016485 -2 4 C-2 2 -2 2 0 0 Z " fill="#537B94" transform="translate(171,137)"/>
<path d="M0 0 C-0.33 0.99 -0.66 1.98 -1 3 C-2.65 3 -4.3 3 -6 3 C-6.33 3.66 -6.66 4.32 -7 5 C-7 4.01 -7 3.02 -7 2 C-4 0 -4 0 0 0 Z " fill="#27587D" transform="translate(274,321)"/>
<path d="M0 0 C2.25 -0.3125 2.25 -0.3125 5 0 C7.3125 2.5 7.3125 2.5 9 5 C8.01 5.495 8.01 5.495 7 6 C7 5.34 7 4.68 7 4 C6.21625 3.71125 5.4325 3.4225 4.625 3.125 C2 2 2 2 0 0 Z " fill="#5C7797" transform="translate(194,302)"/>
<path d="M0 0 C-0.33 0.66 -0.66 1.32 -1 2 C-3.5625 2.625 -3.5625 2.625 -6 3 C-6.33 2.01 -6.66 1.02 -7 0 C-3.86650268 -1.04449911 -3.01031744 -0.93423645 0 0 Z " fill="#2C5389" transform="translate(174,283)"/>
<path d="M0 0 C2.64 1.65 5.28 3.3 8 5 C6.68 5.33 5.36 5.66 4 6 C1.75 4.1875 1.75 4.1875 0 2 C0 1.34 0 0.68 0 0 Z " fill="#768AA0" transform="translate(192,272)"/>
<path d="M0 0 C1.98 0 3.96 0 6 0 C6.33 0.99 6.66 1.98 7 3 C7.66 3.33 8.32 3.66 9 4 C8.67 4.66 8.34 5.32 8 6 C6.66402348 5.19185349 5.331275 4.37836819 4 3.5625 C3.2575 3.11003906 2.515 2.65757812 1.75 2.19140625 C1.1725 1.79824219 0.595 1.40507812 0 1 C0 0.67 0 0.34 0 0 Z " fill="#6F84A7" transform="translate(148,272)"/>
<path d="M0 0 C2 2 2 2 4 5 C2.02 5.99 2.02 5.99 0 7 C0 6.01 0 5.02 0 4 C-0.99 3.67 -1.98 3.34 -3 3 C-2.01 2.01 -1.02 1.02 0 0 Z " fill="#4286A0" transform="translate(294,256)"/>
<path d="M0 0 C0.99 0.33 1.98 0.66 3 1 C2.34 2.65 1.68 4.3 1 6 C0.34 6 -0.32 6 -1 6 C-1 5.34 -1 4.68 -1 4 C-1.66 3.67 -2.32 3.34 -3 3 C-2.01 2.01 -1.02 1.02 0 0 Z " fill="#4A829C" transform="translate(227,205)"/>
<path d="M0 0 C-0.33 0.66 -0.66 1.32 -1 2 C-1.66 1.67 -2.32 1.34 -3 1 C-3 1.66 -3 2.32 -3 3 C-6.46153846 6 -6.46153846 6 -9 6 C-8.67 5.01 -8.34 4.02 -8 3 C-7.34 3 -6.68 3 -6 3 C-6 2.34 -6 1.68 -6 1 C-4 0 -4 0 0 0 Z " fill="#2B9192" transform="translate(336,167)"/>
<path d="M0 0 C4.95 1.98 4.95 1.98 10 4 C10 4.33 10 4.66 10 5 C3.375 4.25 3.375 4.25 0 2 C0 1.34 0 0.68 0 0 Z " fill="#69A5A5" transform="translate(282,107)"/>
<path d="M0 0 C1.98 0.495 1.98 0.495 4 1 C4 1.66 4 2.32 4 3 C3.34 3 2.68 3 2 3 C2 3.66 2 4.32 2 5 C1.01 4.67 0.02 4.34 -1 4 C-0.67 2.68 -0.34 1.36 0 0 Z " fill="#215997" transform="translate(221,313)"/>
<path d="M0 0 C1.98 0 3.96 0 6 0 C3.31158141 2.25245881 1.35358125 3.88213958 -2 5 C-1.34 3.35 -0.68 1.7 0 0 Z " fill="#57859C" transform="translate(267,276)"/>
<path d="M0 0 C1.875 0.1875 1.875 0.1875 4 1 C5.25 3.5625 5.25 3.5625 6 6 C3.08482708 4.92598892 1.22189824 4.22189824 -1 2 C-0.67 1.34 -0.34 0.68 0 0 Z " fill="#5F9AA4" transform="translate(265,166)"/>
<path d="M0 0 C-2.97 0.66 -5.94 1.32 -9 2 C-9 1.34 -9 0.68 -9 0 C-4.5 -2.25 -4.5 -2.25 0 0 Z " fill="#54879C" transform="translate(249,160)"/>
<path d="M0 0 C0.99 0.33 1.98 0.66 3 1 C2.34 3.31 1.68 5.62 1 8 C-0.42944945 5.64561267 -1.08661261 4.51967567 -0.625 1.75 C-0.41875 1.1725 -0.2125 0.595 0 0 Z " fill="#2A5E78" transform="translate(187,153)"/>
<path d="M0 0 C-0.33 0.99 -0.66 1.98 -1 3 C-3.64 3 -6.28 3 -9 3 C-6.15236477 0.15236477 -3.96383452 0 0 0 Z " fill="#658A9E" transform="translate(165,118)"/>
<path d="M0 0 C-2.33214148 1.20628008 -4.49642139 2.1654738 -7 3 C-7.99 2.34 -8.98 1.68 -10 1 C-3.71428571 -1.42857143 -3.71428571 -1.42857143 0 0 Z " fill="#558899" transform="translate(246,95)"/>
<path d="M0 0 C-2.31 1.32 -4.62 2.64 -7 4 C-7.33 2.68 -7.66 1.36 -8 0 C-4.94736336 -0.98120464 -3.05263664 -0.98120464 0 0 Z " fill="#6786A1" transform="translate(272,325)"/>
<path d="M0 0 C2 0 2 0 3.625 1.3125 C5 3 5 3 5 6 C3.35 5.67 1.7 5.34 0 5 C0 3.35 0 1.7 0 0 Z " fill="#255589" transform="translate(224,295)"/>
<path d="M0 0 C2.4375 0.375 2.4375 0.375 5 1 C5.33 1.66 5.66 2.32 6 3 C5.01 3 4.02 3 3 3 C3.66 3.66 4.32 4.32 5 5 C3.68 5 2.36 5 1 5 C0.67 3.35 0.34 1.7 0 0 Z " fill="#587A9D" transform="translate(202,280)"/>
<path d="M0 0 C2.375 -0.1875 2.375 -0.1875 5 0 C5.66 0.99 6.32 1.98 7 3 C5.68 3.33 4.36 3.66 3 4 C2.01 2.68 1.02 1.36 0 0 Z " fill="#4D7E98" transform="translate(230,226)"/>
<path d="M0 0 C0.66 0 1.32 0 2 0 C1.67 1.65 1.34 3.3 1 5 C-0.65 5 -2.3 5 -4 5 C-2.71937515 3.2925002 -1.38232443 1.62626404 0 0 Z " fill="#5790A0" transform="translate(276,189)"/>
<path d="M0 0 C0.66 0.33 1.32 0.66 2 1 C1.34 2.65 0.68 4.3 0 6 C-1.65 6 -3.3 6 -5 6 C-3.625 4 -3.625 4 -2 2 C-1.34 2 -0.68 2 0 2 C0 1.34 0 0.68 0 0 Z " fill="#5FA6A5" transform="translate(324,147)"/>
<path d="M0 0 C2.97 0.495 2.97 0.495 6 1 C5.67 1.99 5.34 2.98 5 4 C3.68 4 2.36 4 1 4 C0.67 2.68 0.34 1.36 0 0 Z " fill="#297B88" transform="translate(271,147)"/>
<path d="M0 0 C1.32 0 2.64 0 4 0 C4.33 1.65 4.66 3.3 5 5 C2.525 4.01 2.525 4.01 0 3 C0 2.01 0 1.02 0 0 Z " fill="#1C7F9A" transform="translate(246,138)"/>
</svg>
